<?xml version="1.0" encoding="utf-8"?>
<!-- Svg Vector Icons : http://www.onlinewebfonts.com/icon -->
<!DOCTYPE svg PUBLIC "-//W3C//DTD SVG 1.1//EN" "http://www.w3.org/Graphics/SVG/1.1/DTD/svg11.dtd">
<svg version="1.1" xmlns="http://www.w3.org/2000/svg" xmlns:xlink="http://www.w3.org/1999/xlink" x="0px" y="0px" viewBox="0 0 1000 1000" enable-background="new 0 0 1000 1000" xml:space="preserve">
<metadata> Svg Vector Icons : http://www.onlinewebfonts.com/icon </metadata>
<g><path d="M712.5,622.5l-48.8,142.9h98.4L712.5,622.5z M418.3,622.5v306.3c0,33.9,27.4,61.2,61.3,61.2h449.2c33.9,0,61.3-27.4,61.3-61.2V479.6c0-33.9-27.4-61.3-61.3-61.3H622.5v142.9c0,33.9-27.4,61.3-61.3,61.3H418.3z M803.8,863.6c-3.3-6.3-5.9-12-7.8-17.2l-15.7-40.2H646.2l-15.7,40.8c-6.3,15.9-11.4,26.7-15.9,32.5c-4.5,5.9-11.4,8.4-21.4,8.4c-8.2,0-15.9-2.9-22.3-8.6c-6.3-5.7-9.6-12.9-9.6-20.4c0-4.1,0.6-8.6,2.2-13.1c1.2-4.5,3.9-11.2,7.4-19.6l84.5-205c2.2-5.7,5.1-12.9,8.6-21c3.3-8.4,7.1-15.1,10.8-20.4c3.9-5.5,8.6-10,15.1-13.5c6.3-3.3,13.9-5.1,23.3-5.1c9.2,0,16.9,1.8,23.3,5.1c6.1,3.5,11,8,14.9,13.1c3.9,5.5,7.1,11.2,9.6,17.2c2.7,6.1,6.1,14.1,10.2,24.3l86.2,204c6.7,15.5,10.2,26.7,10.2,33.7c0,7.8-3.3,14.5-9.6,20.4c-6.3,6.1-14.1,9-22.9,9c-5.5,0-10-0.6-13.9-2.4c-3.7-2-6.5-4.3-9.2-7.4C809.5,874.9,806.7,870,803.8,863.6L803.8,863.6z M293.6,351.4c14.7,0,39.6,12,74.7,36.3c10.2-10.8,17.6-23.9,22.3-39.2c4.9-15.3,7.3-32.9,7.3-53.3c0-25.3-4.5-47.2-12.7-65.7c-8.8-18.6-20.8-32.3-36.5-41.9c-15.9-9.6-33.7-14.3-54.1-14.3c-14.7,0-28.2,2.9-40.2,8c-12.5,5.1-23.1,12.9-31.9,22.7c-9,10.2-16.1,22.9-21,38.6c-5.3,15.7-7.8,33.3-7.8,52.3c0,39.6,9.6,70.2,28.8,91.7c19,21.2,43.7,31.9,72.9,31.9c12.3,0,24.7-2.2,37.4-7.3c-7.6-5.3-17.1-10.8-28.6-16.3c-11.6-5.3-19.6-9.4-23.7-12.7c-4.5-2.9-6.3-6.9-6.3-12.9c0-4.3,1.8-8.6,5.9-12.5C284,353.2,288.5,351.4,293.6,351.4L293.6,351.4z M71.2,10C37.4,10,10,37.4,10,71.3v449.2c0,33.9,27.4,61.3,61.2,61.3h449.2c33.9,0,61.3-27.4,61.3-61.3V71.3c0-33.9-27.4-61.3-61.3-61.3H71.2L71.2,10z M459.2,300.5c0,51.9-13.1,92.9-38.6,122.9c9,5.7,19.2,11.4,30,16.5c10.8,5.5,18.2,9.6,21.6,12.9c3.5,3.1,5.5,7.4,5.5,13.1c0,3.9-2.2,8-6.5,12.5c-4.3,3.7-9.6,5.9-15.3,5.9c-5.1,0-10.8-1.4-17.8-4.3c-7.1-3.3-15.1-7.8-24.3-13.1c-9.6-6.1-19.8-12.9-30.6-20.4c-22.7,8.6-50.4,12.7-82.9,12.7c-26.7,0-50.4-3.9-71.5-11.8c-21-7.6-39-19.2-53.3-33.7c-14.3-14.7-25.1-32.1-32.3-52.5c-7.4-20.4-10.8-42.5-10.8-66.4c0-24.1,3.5-46.1,10.8-66.6c7.3-20.2,18-37.4,31.9-51.7c14.1-14.1,31-24.9,51-32.7c20.2-7.6,42.9-11.4,68.4-11.4c34.3,0,64.1,6.9,89,20.8c24.9,13.7,43.7,33.1,56.4,58.4C452.8,236.8,459.2,266.4,459.2,300.5L459.2,300.5z"/></g>
</svg>