<?xml version="1.0" encoding="utf-8"?>
<!-- Generator: Adobe Illustrator 24.1.2, SVG Export Plug-In . SVG Version: 6.00 Build 0)  -->
<svg version="1.1" id="Layer_1" xmlns="http://www.w3.org/2000/svg" xmlns:xlink="http://www.w3.org/1999/xlink" x="0px" y="0px"
	 viewBox="0 0 4000 2891.57" style="enable-background:new 0 0 4000 2891.57;" xml:space="preserve">
<style type="text/css">
	.st0{fill:#FFFFFF;}
	.st1{opacity:0.1;}
	.st2{fill:#7D9FA0;}
	.st3{fill:#98C6A2;}
	.st4{opacity:0.7;fill:#D1E9F3;}
	.st5{opacity:0.5;fill:#FFFFFF;}
	.st6{opacity:0.8;fill:#FFFFFF;}
	.st7{fill:#C2AACE;}
	.st8{fill:#8E7C96;}
	.st9{fill:#51797A;}
	.st10{fill:#FFA1AF;}
	.st11{opacity:0.4;fill:#FFFFFF;}
	.st12{fill:#A3A2A1;}
	.st13{fill:#FFFAF5;}
	.st14{fill:#F8E8D8;}
	.st15{fill:#BAB9B8;}
	.st16{fill:#E3D4C6;}
	.st17{opacity:0.2;fill:#1C1A18;}
	.st18{fill:#D1D0CF;}
	.st19{fill:#5B595A;}
	.st20{fill:#FFCEBF;}
	.st21{fill:#F8DDC2;}
	.st22{fill:#E85D72;}
	.st23{fill:#5C9FD5;}
	.st24{fill:#86606F;}
	.st25{fill:#D18A9F;}
	.st26{opacity:0.2;fill:#FFFFFF;}
	.st27{fill:#B3B3B3;}
	.st28{fill:#4D4D4D;}
	.st29{fill:#F2C480;}
</style>
<rect x="0" y="0" class="st0" width="4000" height="2891.57"/>
<g>
	<ellipse class="st1" cx="1052.49" cy="2603.42" rx="258.55" ry="17.77"/>
	<g>
		<path class="st2" d="M1271.54,2539.15c0-36.18-29.33-65.52-65.52-65.52c-2.78,0-5.51,0.19-8.2,0.53c0.01-0.46,0.04-0.91,0.04-1.37
			c0-36.67-29.72-66.39-66.39-66.39c-3.95,0-7.81,0.36-11.56,1.02c-0.34-13.45-4.68-25.9-11.88-36.22c0-0.01-0.01-0.01-0.01-0.02
			c-0.59-0.85-1.2-1.68-1.83-2.5c-0.02-0.03-0.04-0.05-0.06-0.08c-0.61-0.8-1.25-1.58-1.9-2.35c-0.04-0.04-0.08-0.09-0.12-0.13
			c-0.64-0.75-1.28-1.48-1.95-2.2c-0.06-0.07-0.12-0.13-0.18-0.19c-0.65-0.69-1.31-1.37-1.99-2.04c-0.09-0.08-0.18-0.17-0.26-0.25
			c-0.66-0.64-1.33-1.27-2.02-1.88c-0.11-0.1-0.23-0.2-0.34-0.3c-0.67-0.59-1.34-1.17-2.04-1.73c-0.14-0.12-0.29-0.23-0.44-0.34
			c-0.67-0.53-1.35-1.06-2.04-1.57c-0.18-0.13-0.36-0.25-0.53-0.38c-0.67-0.48-1.35-0.96-2.04-1.42c-0.21-0.14-0.42-0.27-0.63-0.41
			c-0.67-0.43-1.34-0.86-2.02-1.27c-0.24-0.15-0.49-0.28-0.74-0.43c-0.66-0.39-1.33-0.77-2.01-1.13c-0.28-0.15-0.56-0.29-0.84-0.43
			c-0.66-0.34-1.32-0.68-1.99-1c-0.31-0.15-0.63-0.29-0.95-0.43c-0.65-0.3-1.29-0.59-1.95-0.87c-0.35-0.15-0.71-0.28-1.07-0.42
			c-0.63-0.25-1.27-0.51-1.91-0.74c-0.39-0.14-0.78-0.26-1.18-0.4c-0.62-0.21-1.24-0.43-1.87-0.62c-0.43-0.13-0.86-0.24-1.3-0.37
			c-0.61-0.17-1.21-0.35-1.82-0.51c-0.47-0.12-0.95-0.22-1.43-0.33c-0.58-0.13-1.16-0.28-1.75-0.4c-0.51-0.1-1.04-0.18-1.56-0.28
			c-0.56-0.1-1.12-0.21-1.68-0.3c-0.57-0.09-1.14-0.15-1.71-0.22c-0.53-0.07-1.05-0.14-1.58-0.2c-0.67-0.07-1.34-0.11-2.01-0.15
			c-0.44-0.03-0.88-0.08-1.33-0.1c-1.07-0.05-2.15-0.08-3.23-0.08c-0.05,0-0.1,0-0.16,0c0,0,0,0,0,0c0,0,0,0,0,0
			c-0.05,0-0.1,0-0.16,0c-1.08,0-2.16,0.03-3.23,0.08c-0.45,0.02-0.89,0.07-1.33,0.1c-0.67,0.05-1.34,0.09-2.01,0.15
			c-0.53,0.05-1.05,0.13-1.58,0.2c-0.57,0.07-1.15,0.13-1.71,0.22c-0.57,0.09-1.12,0.2-1.68,0.3c-0.52,0.09-1.04,0.17-1.55,0.28
			c-0.59,0.12-1.17,0.26-1.75,0.4c-0.48,0.11-0.96,0.21-1.43,0.33c-0.61,0.16-1.21,0.34-1.82,0.51c-0.43,0.12-0.87,0.24-1.3,0.37
			c-0.63,0.19-1.25,0.41-1.87,0.62c-0.39,0.13-0.79,0.26-1.18,0.4c-0.64,0.23-1.28,0.49-1.91,0.74c-0.36,0.14-0.72,0.27-1.07,0.42
			c-0.66,0.28-1.31,0.57-1.95,0.87c-0.32,0.14-0.64,0.28-0.95,0.43c-0.67,0.32-1.33,0.66-1.99,1c-0.28,0.14-0.56,0.28-0.84,0.43
			c-0.68,0.36-1.34,0.75-2.01,1.13c-0.25,0.14-0.5,0.28-0.74,0.43c-0.68,0.41-1.36,0.84-2.02,1.27c-0.21,0.14-0.43,0.27-0.63,0.41
			c-0.69,0.46-1.37,0.94-2.04,1.42c-0.18,0.13-0.36,0.25-0.53,0.38c-0.69,0.51-1.37,1.04-2.04,1.57c-0.14,0.11-0.29,0.23-0.44,0.34
			c-0.69,0.56-1.37,1.14-2.04,1.73c-0.11,0.1-0.23,0.2-0.34,0.3c-0.69,0.61-1.36,1.24-2.02,1.88c-0.09,0.08-0.18,0.17-0.26,0.25
			c-0.68,0.66-1.34,1.34-1.99,2.04c-0.06,0.07-0.12,0.13-0.19,0.19c-0.67,0.72-1.32,1.45-1.95,2.2c-0.04,0.04-0.08,0.09-0.12,0.13
			c-0.65,0.77-1.28,1.55-1.9,2.35c-0.02,0.03-0.04,0.05-0.06,0.08c-0.63,0.82-1.24,1.65-1.83,2.5c0,0.01-0.01,0.01-0.01,0.02
			c-7.2,10.32-11.53,22.77-11.88,36.22c-3.76-0.66-7.62-1.02-11.56-1.02c-36.67,0-66.39,29.72-66.39,66.39
			c0,0.46,0.03,0.91,0.03,1.37c-2.69-0.34-5.42-0.53-8.2-0.53c-36.18,0-65.52,29.33-65.52,65.52c0,36.18,29.33,65.52,65.52,65.52
			h308.86l-0.07-0.12C1244.27,2602.54,1271.54,2574.04,1271.54,2539.15z"/>
		<path class="st1" d="M1209.88,2604.53l0.1,0.13H901.1c-20.86,0-39.47-9.76-51.42-24.98c7.57,0.52,15.21,0.78,22.92,0.78
			c126.64,0,235.88-68.82,286.16-168.17c23.05,10.35,39.11,33.56,39.11,60.5c0,0.46-0.03,0.91-0.03,1.37
			c2.68-0.33,5.42-0.52,8.19-0.52c36.17,0,65.52,29.32,65.52,65.52C1271.55,2574.04,1244.29,2602.54,1209.88,2604.53z"/>
	</g>
</g>
<g>
	<ellipse class="st1" cx="2887.08" cy="2596.84" rx="240.86" ry="16.55"/>
	<g>
		<path class="st3" d="M3091.14,2536.97c0-33.71-27.32-61.03-61.03-61.03c-2.59,0-5.13,0.18-7.64,0.49
			c0.01-0.43,0.03-0.85,0.03-1.28c0-34.16-27.69-61.84-61.84-61.84c-3.68,0-7.27,0.34-10.77,0.95
			c-0.32-12.53-4.36-24.13-11.06-33.74c0-0.01-0.01-0.01-0.01-0.02c-0.55-0.79-1.12-1.56-1.71-2.33c-0.02-0.03-0.04-0.05-0.06-0.08
			c-0.57-0.74-1.16-1.47-1.77-2.19c-0.04-0.04-0.07-0.08-0.11-0.12c-0.59-0.7-1.2-1.38-1.82-2.05c-0.06-0.06-0.11-0.12-0.17-0.18
			c-0.61-0.65-1.22-1.28-1.85-1.9c-0.08-0.08-0.16-0.16-0.25-0.23c-0.62-0.6-1.24-1.18-1.88-1.75c-0.1-0.09-0.21-0.18-0.32-0.28
			c-0.62-0.55-1.25-1.09-1.9-1.61c-0.13-0.11-0.27-0.21-0.41-0.32c-0.63-0.5-1.26-0.99-1.9-1.46c-0.16-0.12-0.33-0.23-0.5-0.35
			c-0.63-0.45-1.25-0.9-1.9-1.32c-0.19-0.13-0.39-0.25-0.59-0.38c-0.62-0.4-1.25-0.8-1.88-1.19c-0.23-0.14-0.46-0.26-0.69-0.4
			c-0.62-0.36-1.24-0.72-1.87-1.06c-0.26-0.14-0.52-0.27-0.78-0.4c-0.61-0.32-1.23-0.63-1.85-0.93c-0.29-0.14-0.59-0.27-0.89-0.4
			c-0.6-0.28-1.21-0.55-1.82-0.81c-0.33-0.14-0.67-0.26-1-0.39c-0.59-0.23-1.18-0.47-1.78-0.69c-0.36-0.13-0.73-0.25-1.1-0.37
			c-0.58-0.2-1.16-0.4-1.75-0.58c-0.4-0.12-0.81-0.23-1.21-0.34c-0.56-0.16-1.12-0.33-1.7-0.47c-0.44-0.11-0.89-0.2-1.33-0.31
			c-0.54-0.13-1.08-0.26-1.63-0.37c-0.48-0.1-0.97-0.17-1.45-0.26c-0.52-0.09-1.04-0.2-1.57-0.28c-0.53-0.08-1.06-0.14-1.59-0.2
			c-0.49-0.06-0.98-0.13-1.47-0.18c-0.62-0.06-1.25-0.1-1.87-0.14c-0.41-0.03-0.82-0.07-1.24-0.09c-1-0.05-2-0.07-3.01-0.08
			c-0.05,0-0.1,0-0.15,0c0,0,0,0,0,0c0,0,0,0,0,0c-0.05,0-0.1,0-0.15,0c-1.01,0-2.01,0.03-3.01,0.08c-0.42,0.02-0.83,0.06-1.24,0.09
			c-0.63,0.04-1.25,0.08-1.87,0.14c-0.49,0.05-0.98,0.12-1.47,0.18c-0.53,0.07-1.07,0.12-1.59,0.2c-0.53,0.08-1.05,0.18-1.57,0.28
			c-0.48,0.09-0.97,0.16-1.45,0.26c-0.55,0.11-1.09,0.25-1.63,0.37c-0.44,0.1-0.89,0.19-1.33,0.31c-0.57,0.15-1.13,0.31-1.7,0.47
			c-0.4,0.11-0.81,0.22-1.21,0.34c-0.59,0.18-1.17,0.38-1.75,0.58c-0.37,0.12-0.73,0.24-1.1,0.37c-0.6,0.22-1.19,0.46-1.78,0.69
			c-0.33,0.13-0.67,0.26-1,0.39c-0.61,0.26-1.22,0.53-1.82,0.81c-0.29,0.13-0.59,0.26-0.89,0.4c-0.62,0.3-1.24,0.61-1.85,0.93
			c-0.26,0.13-0.52,0.26-0.78,0.4c-0.63,0.34-1.25,0.7-1.87,1.06c-0.23,0.13-0.46,0.26-0.69,0.4c-0.64,0.38-1.26,0.78-1.89,1.19
			c-0.2,0.13-0.4,0.25-0.59,0.38c-0.64,0.43-1.27,0.87-1.9,1.32c-0.16,0.12-0.33,0.23-0.5,0.35c-0.64,0.47-1.28,0.97-1.9,1.46
			c-0.13,0.11-0.27,0.21-0.41,0.32c-0.64,0.52-1.27,1.06-1.9,1.61c-0.11,0.09-0.21,0.18-0.32,0.28c-0.64,0.57-1.26,1.16-1.88,1.75
			c-0.08,0.08-0.16,0.15-0.24,0.23c-0.63,0.62-1.25,1.25-1.85,1.9c-0.06,0.06-0.12,0.12-0.17,0.18c-0.62,0.67-1.23,1.35-1.82,2.05
			c-0.04,0.04-0.07,0.08-0.11,0.12c-0.61,0.71-1.19,1.44-1.77,2.19c-0.02,0.03-0.04,0.05-0.06,0.08c-0.59,0.76-1.15,1.54-1.7,2.33
			c0,0.01-0.01,0.01-0.01,0.02c-6.71,9.61-10.74,21.21-11.06,33.74c-3.5-0.61-7.09-0.95-10.77-0.95
			c-34.16,0-61.84,27.69-61.84,61.84c0,0.43,0.02,0.85,0.03,1.28c-2.5-0.31-5.05-0.49-7.64-0.49c-33.71,0-61.03,27.32-61.03,61.03
			c0,33.71,27.32,61.03,61.03,61.03h287.72l-0.07-0.11C3065.74,2596.03,3091.14,2569.47,3091.14,2536.97z"/>
		<path class="st1" d="M3033.69,2597.88l0.09,0.12h-287.74c-19.43,0-36.77-9.09-47.9-23.27c7.06,0.49,14.17,0.73,21.35,0.73
			c117.97,0,219.74-64.11,266.57-156.66c21.47,9.64,36.43,31.27,36.43,56.36c0,0.43-0.03,0.85-0.03,1.28
			c2.49-0.3,5.05-0.49,7.63-0.49c33.7,0,61.04,27.31,61.04,61.04C3091.14,2569.47,3065.75,2596.02,3033.69,2597.88z"/>
	</g>
</g>
<path class="st4" d="M3398,2093.78c128.3-104.35,249.59-234.91,265.06-403.34c9.35-101.76-32.81-208.66-103.66-277.39
	c-69.3-67.24-92.21-171.38-53.82-261.17c24.72-57.84,37.47-118.48,27-181.02c-21.43-127.94-138.96-220.02-261.23-248.29
	c-24.87-5.75-49.95-9.4-75.15-11.38c-127.08-9.98-237.11-91.94-291.63-211.46c-9.97-21.86-22.56-42.41-37.44-60.77
	c-66.94-82.61-171.02-125.19-274.35-137.22c-103.34-12.04-207.56,3.23-310.45,18.48c-137.62,20.39-413.57-102.88-551.19-82.49
	c-65.72,9.74-132.59,19.82-192.52,49.36c-9.99,4.92-256.43,122.89-381.17,119.92c-209.48-4.98-281.65,180.19-473.95,266.15
	c-100.86,45.08-208.04,118.65-220.26,231.87c-9.58,88.78,46.14,174.3,118.25,223.41c12.02,8.19,24.43,15.56,37.17,22.25
	c98.37,51.7,110.42,191.88,21.01,258.46c-1.4,1.04-2.79,2.08-4.18,3.12c-73.27,54.83-147.66,128.08-149.92,221.82
	c-1.69,69.8,39.08,134.93,92,178.23c2.33,1.9,4.67,3.77,7.04,5.61c59.37,45.99,85.7,123.41,73.68,199.12
	c-2.9,18.28-2.55,37.08,1.61,54.95c16.63,71.49,425.23,180.95,496.12,180.09c325.33-3.94,500.1-6.92,825.43-10.85
	c161.98-1.96,335.05,2.51,497.03,0.55c138.89-1.68,497.49,10.31,497.49,10.31S3254.68,2210.35,3398,2093.78z"/>
<path class="st5" d="M2198.81,1802.16c8.85-0.64,18.18-1.69,25.32-6.96c7.55-5.57,11.44-15.69,9.56-24.88
	c-1.87-9.19-9.41-16.98-18.54-19.15c-8.03-1.91-16.92,0.62-22.9,6.27c-0.57,0.54-1.49,0.04-1.34-0.74
	c1.33-6.95-1.35-14.52-5.99-20.01c-8.83-10.44-24.73-14.16-37.28-8.72c-11.88,5.15-19.83,18.11-19.3,31
	c0.03,0.72-0.81,1.1-1.35,0.62c-6.47-5.85-16.93-6.98-24.38-2.35c-8.07,5.02-11.63,16.19-7.96,24.95
	c2.57,6.14,8.07,10.67,14.11,13.46c12.75,5.89,26.79,6.95,40.59,7.43C2165.83,1803.66,2182.35,1803.34,2198.81,1802.16z"/>
<path class="st5" d="M1847.58,1813.8c11.58-0.83,23.79-2.21,33.13-9.11c9.88-7.29,14.96-20.53,12.51-32.55
	c-2.45-12.03-12.32-22.22-24.26-25.06c-10.51-2.5-22.15,0.81-29.97,8.21c-0.75,0.71-1.95,0.05-1.76-0.97
	c1.73-9.1-1.76-19-7.84-26.18c-11.56-13.66-32.37-18.53-48.79-11.42c-15.55,6.74-25.95,23.69-25.26,40.57
	c0.04,0.94-1.07,1.44-1.76,0.81c-8.46-7.65-22.16-9.13-31.91-3.07c-10.55,6.57-15.22,21.19-10.41,32.65
	c3.37,8.03,10.56,13.96,18.47,17.61c16.68,7.71,35.05,9.1,53.11,9.72C1804.43,1815.76,1826.04,1815.35,1847.58,1813.8z"/>
<path class="st6" d="M2075.09,1590.39c9.47-1.86,19.89-4.62,25.03-12.79c5.27-8.37,2.9-19.64-2.36-28.02
	c-8.52-13.58-24.3-22.29-40.34-22.27s-31.79,8.79-40.27,22.39c6.56-10.21,5.68-24.23-0.88-34.44
	c-6.56-10.21-18.08-16.66-30.06-18.55c-14.28-2.26-29.88,1.99-39.67,12.63s-12.49,27.81-4.84,40.07
	c-7.54-17.51-25.43-30.08-44.46-31.24c-13.45-0.82-27.37,4-36.67,13.76c-9.3,9.76-13.44,24.47-9.57,37.39
	c8.45,28.23,44.76,28.61,68.48,30.36c33.21,2.46,66.63,2.08,99.78-1.14C2037.98,1596.73,2056.62,1594.01,2075.09,1590.39z"/>
<path class="st0" d="M1023.23,1172.57c13.79-0.99,28.33-2.63,39.47-10.85c11.76-8.68,17.83-24.45,14.9-38.78
	c-2.92-14.33-14.67-26.46-28.9-29.85c-12.52-2.98-26.38,0.96-35.7,9.78c-0.89,0.85-2.32,0.06-2.09-1.15
	c2.07-10.84-2.1-22.63-9.34-31.19c-13.77-16.27-38.56-22.07-58.11-13.6c-18.52,8.02-30.91,28.22-30.09,48.32
	c0.05,1.12-1.27,1.72-2.1,0.96c-10.08-9.11-26.39-10.88-38.01-3.66c-12.57,7.82-18.13,25.24-12.4,38.89
	c4.01,9.56,12.58,16.63,22,20.98c19.87,9.18,41.76,10.84,63.27,11.58C971.82,1174.91,997.57,1174.42,1023.23,1172.57z"/>
<g>
	<path class="st7" d="M1280.77,1925.03c-1.83,82.12-14.55,163.61-29.3,244.43c-1.16,6.22-2.36,12.58-3.71,18.94
		c-6.7,31.37-31.42,52.05-59.18,56.96c-20.63,3.66-42.94-1.3-60.82-16.96c-119.42-104.24-208.82-240.29-244.14-395.33
		c-4.67-20.34-8.48-41.25-5.83-61.88c2.65-20.67,12.67-41.3,30.46-52.19c9.54-5.88,26.36-5.01,39.86-2.94
		c5.88,0.92,9.35-6.31,5.11-10.41c-47.42-45.93-186.02-188.96-190.6-297.45c-0.92-21.78,0.24-44.19,8.53-64.34
		c8.34-20.19,24.82-37.98,45.98-43.18c5.3-1.35,11.52-0.82,17.88,0.72c10.22,2.51,17.93-9.4,11.76-17.93
		c-13.2-18.27-27.66-39.81-35.08-55.86c-15.57-33.83-22.51-73.16-11.08-108.58c4.58-14.31,12.72-27.71,23.13-38.7
		c15.42-16.1,35.95-26.84,58.12-27.28c42.7-0.87,78.84,35.66,91.95,76.29c8.63,26.79,9.45,73.59,8.96,102.36
		c-0.14,9.4,10.36,14.89,18.02,9.49c11.13-7.76,25.21-15.23,36.43-13.64c22.27,3.18,41.4,18.51,53.83,37.16
		c12.43,18.7,19.04,40.63,24.39,62.46c20.58,83.52,13.59,235.76,9.88,294.79c-0.39,6.02,7.28,8.82,10.94,4.05
		c7.04-9.25,16.29-18.46,25.93-19.47c20.14-2.17,40.05,8.24,53.78,23.13c13.69,14.94,22.02,33.93,28.96,52.92
		C1273.2,1759.77,1282.55,1842.91,1280.77,1925.03z"/>
	<path class="st1" d="M1280.77,1925.03c-1.83,82.12-14.55,163.61-29.3,244.43c-1.16,6.22-2.36,12.58-3.71,18.94
		c-6.7,31.37-31.42,52.05-59.18,56.96c-91.37-596.43-307.57-1051.81-364.87-1165.01c15.42-16.1,35.95-26.84,58.12-27.28
		c42.7-0.87,78.84,35.66,91.95,76.29c8.63,26.79,9.45,73.59,8.96,102.36c-0.14,9.4,10.36,14.89,18.02,9.49
		c11.13-7.76,25.21-15.23,36.43-13.64c22.27,3.18,41.4,18.51,53.83,37.16c12.43,18.7,19.04,40.63,24.39,62.46
		c20.58,83.52,13.59,235.76,9.88,294.79c-0.39,6.02,7.28,8.82,10.94,4.05c7.04-9.25,16.29-18.46,25.93-19.47
		c20.14-2.17,40.05,8.24,53.78,23.13c13.69,14.94,22.02,33.93,28.96,52.92C1273.2,1759.77,1282.55,1842.91,1280.77,1925.03z"/>
	<path class="st8" d="M864.37,1155.06c151.87,345.77,263.47,709.37,331.76,1081.09l-9.49,1.71
		c-65.72-371.43-174.76-735.32-324.29-1081.93L864.37,1155.06z"/>
	<path class="st8" d="M1041.13,1631.45c16.49-88.72,15.54-180.81-2.89-269.47c20,88.32,22.66,180.69,7.64,270.31L1041.13,1631.45z"
		/>
	<path class="st8" d="M1127.74,1934.34c-52.01-28.88-95.3-72.66-123.47-124.52c29.57,51.08,73.8,93.26,125.75,120.28
		L1127.74,1934.34z"/>
</g>
<g>
	<g>
		<path class="st7" d="M3190.58,1715.06c-84.82,206.54-219.51,389.16-403.41,515.76c-2.07-1.12-4.09-2.23-6.11-3.45
			c-58.79-34.94-88.77-104.9-103.14-172.34c-42.3-198.44,16.75-409.52,129.02-578.55c112.27-169.07,273.79-300.11,445.81-407.73
			C3294.58,1288.06,3275.39,1508.52,3190.58,1715.06z"/>
		<path class="st8" d="M3232.61,1133.29c-53.51,84.2-107,168.42-157.35,254.5c-50.34,86.05-97.53,174.03-138.12,265.04
			c-40.59,90.97-75.07,184.74-100.77,280.92c-25.69,96.13-42.52,194.73-47.42,294.02c-0.13,2.66-2.39,4.71-5.05,4.58
			c-2.66-0.13-4.71-2.39-4.58-5.05l0-0.03c5.56-100.03,23.12-199.13,49.54-295.55c26.43-96.47,61.62-190.35,102.88-281.31
			c41.28-91.01,89.1-178.85,140.03-264.67c50.94-85.85,104.97-169.76,159-253.63c0.33-0.51,1.01-0.65,1.51-0.33
			C3232.78,1132.11,3232.93,1132.78,3232.61,1133.29z"/>
		<path class="st8" d="M3014.64,1358.76c-32.51,69.05-47.8,145.95-44.25,221.88c0.06,1.33-0.96,2.46-2.29,2.52
			c-1.33,0.06-2.46-0.97-2.52-2.29c0-0.01,0-0.03,0-0.04c-2.34-76.77,14.37-153.87,48.08-222.54c0.13-0.27,0.46-0.38,0.73-0.25
			C3014.65,1358.17,3014.76,1358.49,3014.64,1358.76z"/>
		<path class="st8" d="M2903.99,1718.32c76.2-21.82,144.32-71.54,188.48-137.91c0.16-0.25,0.49-0.31,0.74-0.15
			c0.24,0.16,0.31,0.49,0.15,0.73c-43.25,67.27-111.04,118.59-188.01,141.95c-1.27,0.39-2.62-0.33-3.01-1.61
			c-0.39-1.27,0.33-2.62,1.61-3.01C2903.96,1718.33,2903.98,1718.33,2903.99,1718.32z"/>
		<path class="st8" d="M2837.6,1723.7c-25.83,75.39-29.14,158.13-9.59,235.01c0.33,1.29-0.45,2.6-1.74,2.93
			c-1.29,0.33-2.6-0.45-2.93-1.74c0-0.01-0.01-0.03-0.01-0.04c-18.56-78.1-13.84-161.34,13.24-236.52c0.1-0.28,0.42-0.43,0.7-0.33
			C2837.55,1723.11,2837.7,1723.42,2837.6,1723.7z"/>
	</g>
	<path class="st1" d="M3188.06,1716.07c-84.82,206.54-219.51,389.16-403.42,515.76c-2.07-1.12-4.09-2.23-6.11-3.45
		c12.35-533.96,458.98-1040.06,471.7-1158.61C3292.06,1289.08,3272.88,1509.53,3188.06,1716.07z"/>
</g>
<g>
	<path class="st3" d="M1196.48,2243.58c-218.3,14.24-440.69-43.04-624.89-161.02c-74.36-47.58-143.81-106.22-189-182.07
		c-57.27-96.03-71.06-210.92-83.6-322.03c147.04-21.11,287.1-11.42,415.94,62.49C826.59,1705,917.85,1800.18,992.5,1905
		c72.76,102.19,141.49,218.15,199.48,329.87C1193.51,2237.79,1195,2240.71,1196.48,2243.58z"/>
	<polygon class="st9" points="689.56,1940.37 615.57,1738.38 616.57,1738.01 694.07,1938.67 	"/>
	<polygon class="st9" points="900.54,2080.47 683.32,2039.62 683.51,2038.57 901.4,2075.73 	"/>
	<path class="st9" d="M1194.39,2247.93c-78.44-37.83-154.44-80.4-228.78-125.5c-74.34-45.14-147.03-92.87-218.87-141.78
		c-35.92-24.47-71.54-49.42-106.28-75.6c-34.75-26.16-68.55-53.58-101.26-82.23c-32.73-28.63-64.4-58.43-95.39-88.91
		c-30.91-30.55-61.08-61.83-90.95-93.38l1.55-1.47c30.08,31.32,60.45,62.36,91.55,92.66c31.17,30.22,63,59.74,95.86,88.08
		c32.84,28.36,66.74,55.46,101.59,81.3c34.83,25.87,70.56,50.51,106.61,74.7c72.12,48.36,145.08,95.49,219.59,139.98
		c74.51,44.47,150.59,86.35,228.94,123.43L1194.39,2247.93z"/>
	<path class="st1" d="M1195.15,2254.15c-215.17-130.55-426.66-255.53-586.34-371.81c-106.62-86.69-207.66-183.69-304.62-296.24
		c147.04-21.11,287.1-11.42,415.94,62.49c111.66,64.04,202.41,159.59,277.57,264.04C1082.15,2029.99,1178.05,2195.5,1195.15,2254.15
		z"/>
</g>
<path class="st10" d="M3254.47,1440.92c-5.87-4.33-14.96-3.4-21.19,1.11c-3.12,2.24-5.59,5.28-6.75,8.76
	c-1.22,3.56-1.36,7.49-0.46,11.29c1.71,7.61,7.25,14.5,14.31,17.51c7.19,3.19,15.82,2.75,23.33-0.17
	c7.6-2.96,13.82-8.63,17.56-15.76c3.87-7.11,4.93-15.65,4.22-23.83c-0.89-8.21-3.95-16.2-8.79-22.7c-5-6.36-11.82-11.06-19.7-13.14
	c-15.69-4.24-33.77,0.96-45.7,12.14c-12.37,10.93-16.73,28.69-13.24,44.86c3.26,16.23,13.66,31.15,28.09,38.84
	c14.51,7.88,32.37,9.03,48.42,4.55c32.71-8.4,54.75-43.72,50.9-76.65c-1.71-16.45-9.76-32.16-21.48-43.84
	c-11.76-11.77-27.55-18.73-44.1-20.15c-16.6-1.39-33.62,2.5-48.77,9.89c-15.32,7.34-28.27,18.6-38.54,32.28
	c-10.3,13.61-18,29.27-23.35,45.77c-5.39,16.52-8.66,33.76-10.38,51.25c-3.46,35.11-1.34,70.97-1.78,107.4
	c-0.4,36.5-4.03,72.96-10.41,108.91c-6.42,35.95-15.66,71.41-27.7,105.91c-12.15,34.46-27.03,67.98-44.51,100.12
	c-69.81,128.83-183.37,232.99-317.36,293.09c-6.07,2.72-13.2,0.01-15.92-6.06c-2.72-6.07-0.01-13.2,6.06-15.92l0.11-0.05l0.03-0.01
	c129.69-56.61,240.83-156.34,309.73-280.6c17.27-31.02,32.05-63.44,44.21-96.84c12.04-33.44,21.38-67.86,27.97-102.81
	c6.56-34.95,10.46-70.43,11.2-106.02c0.82-35.61-1.02-72,2.93-108.71c1.99-18.34,5.63-36.69,11.61-54.39
	c5.94-17.7,14.49-34.78,26.09-49.82c22.76-30.49,61.09-50.01,99.99-46.7c19.33,1.78,38.37,10.42,51.98,24.4
	c13.61,13.86,22.77,32.16,24.64,51.66c1.9,19.49-3.39,39.23-14.13,55.28c-5.29,8.1-12.12,15.18-19.89,21
	c-7.91,5.72-16.82,9.91-26.14,12.48c-18.61,4.99-39.29,3.56-56.55-6c-17.39-9.56-29.28-27.2-32.93-46.26
	c-1.86-9.55-1.71-19.61,1.14-29.1c1.27-4.78,3.47-9.27,6-13.56c2.78-4.1,5.82-8.07,9.56-11.27c14.49-13.15,35.4-19.09,54.68-13.8
	c9.57,2.6,18.3,8.68,24.29,16.58c5.85,8.01,9.31,17.49,10.28,27.19c0.76,9.67-0.58,19.8-5.42,28.57
	c-4.69,8.81-12.7,15.89-21.99,19.36c-9.22,3.48-19.96,4.02-29.36-0.21c-9.5-4.25-16.31-13.03-18.51-22.99
	c-1.13-4.99-0.93-10.38,0.83-15.35c1.77-5.07,5.34-9.3,9.55-12.24c4.26-2.9,9.21-4.76,14.43-5.04c5.18-0.4,10.68,1.07,15.06,4.26
	c1.55,1.13,1.9,3.31,0.76,4.86c-1.13,1.55-3.31,1.9-4.86,0.76l-0.02-0.01L3254.47,1440.92z"/>
<path class="st10" d="M668.18,1429.24c4.52-3.08,10.12-4.39,15.33-3.81c5.26,0.45,10.19,2.48,14.4,5.55
	c4.15,3.1,7.62,7.49,9.25,12.66c1.62,5.07,1.64,10.52,0.34,15.52c-2.54,9.99-9.7,18.63-19.42,22.62
	c-9.63,3.97-20.46,3.08-29.65-0.73c-9.27-3.8-17.12-11.21-21.58-20.25c-4.6-9.01-5.63-19.28-4.55-29.02
	c1.28-9.76,5.08-19.23,11.25-27.12c6.31-7.78,15.31-13.64,25.06-15.96c9.75-2.32,20.02-1.98,29.42,0.95
	c9.42,2.84,18.26,7.76,25.35,14.75c3.67,3.36,6.62,7.46,9.29,11.69c2.41,4.42,4.49,9.02,5.62,13.89c2.57,9.67,2.4,19.84,0.22,29.42
	c-4.3,19.12-16.88,36.56-34.74,45.65c-17.74,9.09-38.67,9.87-57.31,4.24c-9.33-2.9-18.2-7.42-26-13.45
	c-7.67-6.13-14.33-13.5-19.41-21.85c-10.33-16.56-15.04-36.67-12.49-56.29c2.51-19.64,12.36-37.83,26.55-51.38
	c14.19-13.68,33.7-21.79,53.28-22.97c39.4-2.09,77.49,18.86,99.5,50.39c11.24,15.56,19.33,33.1,24.76,51.17
	c5.47,18.08,8.55,36.74,9.98,55.33c2.81,37.22-0.22,73.95-0.54,109.97c-0.4,36,2.4,71.99,7.9,107.53
	c5.54,35.54,13.87,70.64,24.97,104.83c11.21,34.16,25.11,67.41,41.57,99.32c65.65,127.84,174.79,232.24,304.08,293.65l0.03,0.01
	c6.01,2.85,8.57,10.04,5.71,16.05c-2.86,6.01-10.04,8.57-16.05,5.71l-0.11-0.05c-133.47-65.03-244.89-173.94-311.31-306.37
	c-16.63-33.04-30.59-67.39-41.77-102.61c-11.06-35.26-19.26-71.39-24.59-107.92c-5.3-36.53-7.8-73.5-7.03-110.4
	c0.72-36.83,4.01-73.01,1.65-108.62c-1.18-17.74-3.93-35.28-8.85-52.15c-4.88-16.86-12.17-32.94-22.14-47.04
	c-9.95-14.16-22.68-25.97-37.94-33.88c-15.09-7.96-32.19-12.44-49.02-11.57c-16.79,0.91-33,7.44-45.27,18.97
	c-12.22,11.44-20.88,27.08-23.14,43.67c-4.95,33.2,16.21,69.64,49.03,79.19c16.09,5.05,34.2,4.46,49.14-3.05
	c14.85-7.32,25.85-22.08,29.67-38.39c4.05-16.24,0.21-34.36-11.96-45.82c-11.72-11.69-29.83-17.54-45.85-13.75
	c-8.03,1.86-15.09,6.39-20.36,12.67c-5.11,6.43-8.46,14.41-9.63,22.69c-0.99,8.25-0.18,16.93,3.51,24.25
	c3.55,7.34,9.67,13.28,17.27,16.51c7.51,3.2,16.23,3.91,23.61,0.92c7.25-2.82,13.08-9.62,15.05-17.27c1.03-3.81,1.02-7.8-0.1-11.45
	c-1.07-3.56-3.47-6.72-6.56-9.09c-6.16-4.77-15.33-6-21.43-1.8l-0.03,0.02c-1.58,1.09-3.75,0.69-4.84-0.89
	c-1.09-1.58-0.69-3.75,0.89-4.84L668.18,1429.24z"/>
<g>
	<g>
		<path class="st3" d="M3672.08,1617.5c-2.81,146.96-70.44,289.18-173.57,393.92c-103.14,104.68-239.67,173.29-382.69,207.18
			c-107.73,25.49-219.3,32.04-329.63,25.62c-14.58-0.85-79.61,1.53-88.54-16.93c-1.97-4.09-1.2-9.2,3.5-15.6
			c8.06-10.94,40.62-19.76,52.99-26.26c17.67-9.22,35.12-18.96,52.3-29.12c68.77-40.68,133.33-88.36,192.57-141.92
			c116.84-105.61,213.05-234.23,279.58-377.07c27.59-59.22,50.85-121.72,92.52-171.99c38.24-46.12,96.94-80.63,155.53-74.91
			c5.29,0.52,10.6,1.37,15.88,2.56c45.68,10.36,83.05,45.78,103.8,87.74C3667.13,1522.74,3672.97,1570.67,3672.08,1617.5z"/>
		<path class="st9" d="M3511.73,1512.85c-18.34,93.65-54.57,183.69-104.97,264.9c-50.53,81.16-115.09,153.64-190.01,213.3
			c-75,59.71-159.94,106.13-248.37,142.29c-88.6,36.07-179.89,64.26-271.61,90.24l-0.29-0.92c90.07-31.24,180.79-60.74,268.18-98.21
			c87.36-37.1,172.28-81.11,247.29-139.47c74.83-58.35,139.66-129.63,190.71-209.81c51.19-80.05,88.53-169.24,108.11-262.52
			L3511.73,1512.85z"/>
		<path class="st9" d="M3218.87,1981.75c67.67-25.51,130.96-62.91,186.08-110.06l0.7,0.8c-54.39,48.18-117.3,86.88-185.04,113.75
			L3218.87,1981.75z"/>
		<path class="st9" d="M3181.83,2009.35c19.85-68.56,50.13-133.99,89.44-193.34l0.89,0.58c-38.2,59.94-67.19,125.63-85.7,194.05
			L3181.83,2009.35z"/>
		<path class="st9" d="M3061.55,2082.45c62.32,1.96,125.23-11.44,181.59-38.82l0.48,0.95c-55.96,28.58-119.03,43.41-182.17,42.68
			L3061.55,2082.45z"/>
		<path class="st9" d="M3399.96,1776.53c-11.06-54.17-8.85-110.82,6.25-163.69l1.03,0.28c-13.85,53.03-14.69,109.25-2.57,162.39
			L3399.96,1776.53z"/>
	</g>
	<path class="st1" d="M3672.08,1617.5c-2.81,146.96-70.44,289.18-173.57,393.92c-103.14,104.68-239.67,173.29-382.69,207.18
		c-107.73,25.49-219.3,32.04-329.63,25.62c-14.58-0.85-79.61,1.53-88.54-16.93c760.15-197.51,825.25-704.24,828.99-836.86
		c5.29,0.52,10.6,1.37,15.88,2.56c45.68,10.36,83.05,45.78,103.8,87.74C3667.13,1522.74,3672.97,1570.67,3672.08,1617.5z"/>
</g>
<path class="st0" d="M1446.25,639.67c12.09-2.37,25.4-5.9,31.96-16.33c6.73-10.69,3.7-25.08-3.01-35.77
	c-10.88-17.34-31.03-28.47-51.5-28.44c-20.47,0.03-40.59,11.22-51.41,28.59c8.38-13.03,7.26-30.94-1.12-43.97
	c-8.38-13.03-23.09-21.27-38.39-23.69c-18.23-2.88-38.16,2.55-50.65,16.13c-12.49,13.58-15.95,35.51-6.18,51.17
	c-9.63-22.36-32.48-38.4-56.77-39.88c-17.18-1.05-34.95,5.11-46.82,17.57c-11.87,12.46-17.15,31.25-12.22,47.73
	c10.78,36.04,57.15,36.53,87.43,38.77c42.41,3.14,85.08,2.65,127.4-1.46C1398.87,647.77,1422.67,644.3,1446.25,639.67z"/>
<path class="st11" d="M865.58,901.83c13.2-2.2,26.57-5.26,37.94-12.32c11.37-7.07,20.55-18.82,21.44-32.17
	c0.73-10.98-4.31-21.94-12.36-29.45c-8.05-7.5-18.84-11.7-29.78-12.86c-17.73-1.88-36.08,4.35-49.27,16.29
	c-1.52,1.37-3.83-0.03-3.36-2.03c3.02-12.63,0.51-26.61-6.78-37.44c-9.09-13.5-25.08-21.88-41.35-22.45
	c-16.86-0.59-34.11,7.34-43.53,21.34c-7.69,11.44-9.5,26.73-4.65,39.5c0.71,1.86-1.38,3.5-3.04,2.41
	c-11.5-7.56-25.79-10.99-39.05-7.63c-16.25,4.13-29.64,19.64-28.92,36.4c0.62,14.51,11.07,27.15,23.66,34.39
	c9.52,5.47,20.52,8.78,31.28,10.73c9,1.64,18.77,0.34,27.9,0.6c25.7,0.73,51.44,1.05,77.12-0.56
	C837.15,905.69,851.43,904.19,865.58,901.83z"/>
<path class="st11" d="M2057.25,658.32c20.76-2.25,41.86-5.83,60.19-15.8c18.33-9.97,33.67-27.41,36.24-48.07
	c2.11-16.98-4.78-34.45-16.65-46.81c-11.87-12.36-28.31-19.83-45.26-22.59c-27.46-4.48-56.59,3.59-78.19,20.96
	c-2.49,2-5.97-0.39-5.05-3.44c5.82-19.35,3.14-41.27-7.27-58.72c-12.98-21.77-37.14-36.17-62.44-38.49
	c-26.22-2.41-53.79,8.4-69.7,29.31c-12.99,17.08-17.16,40.68-10.73,60.92c0.94,2.95-2.45,5.31-4.95,3.47
	c-17.24-12.75-39.2-19.34-60.16-15.28c-25.68,4.98-47.9,27.89-48.27,53.97c-0.32,22.59,14.85,43.13,33.83,55.48
	c14.35,9.34,31.19,15.43,47.79,19.42c13.87,3.33,29.21,2.18,43.41,3.39c39.97,3.39,80.05,6.16,120.18,5.91
	C2012.61,661.81,2035,660.73,2057.25,658.32z"/>
<path class="st0" d="M3086.9,1028.8c13.79-0.99,28.33-2.63,39.47-10.85c11.76-8.68,17.83-24.45,14.9-38.78
	c-2.92-14.33-14.67-26.46-28.9-29.85c-12.52-2.98-26.38,0.96-35.7,9.78c-0.89,0.85-2.32,0.06-2.09-1.15
	c2.07-10.84-2.1-22.63-9.34-31.19c-13.77-16.27-38.56-22.07-58.11-13.6c-18.52,8.02-30.91,28.22-30.09,48.32
	c0.05,1.12-1.27,1.72-2.1,0.96c-10.08-9.11-26.39-10.88-38.01-3.66c-12.57,7.82-18.13,25.24-12.4,38.89
	c4.01,9.56,12.58,16.63,22,20.98c19.88,9.18,41.76,10.84,63.27,11.58C3035.5,1031.14,3061.24,1030.65,3086.9,1028.8z"/>
<g>
	<rect x="1199.64" y="2200.02" class="st12" width="617.43" height="46.49"/>
	<rect x="1224.58" y="2153.53" class="st12" width="566.41" height="46.49"/>
	<rect x="1146.07" y="2200.02" class="st13" width="617.43" height="46.49"/>
	<rect x="1171.01" y="2153.53" class="st13" width="566.41" height="46.49"/>
	<path class="st14" d="M2800.5,758.49v1395.04h-517.93v-530.41c0-158.26-128.34-286.6-286.6-286.6c-79.18,0-150.8,32.1-202.65,83.95
		c-51.86,51.86-83.95,123.52-83.95,202.65v530.41h-509.73V758.49H2800.5z"/>
	<g>
		<g>
			<g>
				<path class="st15" d="M1995.97,1336.51c-79.18,0-150.8,32.1-202.65,83.95c-51.86,51.86-83.95,123.52-83.95,202.65v530.41h46.31
					v-530.41c0-79.13,32.1-150.79,83.95-202.65c46.74-46.74,109.57-77.34,179.49-82.94
					C2011.48,1336.91,2003.78,1336.51,1995.97,1336.51z"/>
			</g>
		</g>
	</g>
	<rect x="2233.52" y="2200.02" class="st13" width="617.43" height="46.49"/>
	<rect x="1146.07" y="2200.02" class="st15" width="617.43" height="46.49"/>
	<rect x="2233.52" y="2200.02" class="st15" width="617.43" height="46.49"/>
	<rect x="2259.04" y="2153.53" class="st13" width="566.41" height="46.49"/>
	<rect x="1146.21" y="758.49" class="st13" width="1707.73" height="70.31"/>
	<rect x="1199.64" y="828.8" class="st1" width="45.46" height="170.66"/>
	<rect x="1146.21" y="999.46" class="st13" width="1707.73" height="70.31"/>
	<rect x="1199.93" y="1068.96" class="st1" width="1600.28" height="19.52"/>
	<rect x="1199.93" y="828.8" class="st1" width="1600.28" height="19.52"/>
	<rect x="1199.93" y="1250.39" class="st1" width="1600.28" height="19.52"/>
	<rect x="1200.23" y="1661.36" class="st1" width="555.47" height="19.52"/>
	<rect x="2282.59" y="1661.36" class="st1" width="517.93" height="19.52"/>
	<rect x="1146.21" y="1179.33" class="st13" width="1707.73" height="70.31"/>
	<circle class="st6" cx="1315.59" cy="914.13" r="34.02"/>
	<path class="st1" d="M1315.59,892.58c16.65,0,30.49,11.98,33.42,27.78c0.38-2.02,0.6-4.1,0.6-6.24c0-18.79-15.23-34.02-34.02-34.02
		c-18.79,0-34.02,15.23-34.02,34.02c0,2.13,0.22,4.21,0.6,6.24C1285.1,904.56,1298.94,892.58,1315.59,892.58z"/>
	
		<ellipse transform="matrix(0.1002 -0.995 0.995 0.1002 452.8025 2328.9395)" class="st6" cx="1514.01" cy="914.13" rx="34.02" ry="34.02"/>
	<path class="st1" d="M1514.01,892.58c16.65,0,30.49,11.98,33.42,27.78c0.38-2.02,0.6-4.1,0.6-6.24c0-18.79-15.23-34.02-34.02-34.02
		c-18.79,0-34.02,15.23-34.02,34.02c0,2.13,0.22,4.21,0.6,6.24C1483.52,904.56,1497.35,892.58,1514.01,892.58z"/>
	<rect x="1394.06" y="828.8" class="st1" width="45.46" height="170.66"/>
	<rect x="1588.49" y="828.8" class="st1" width="45.46" height="170.66"/>
	
		<ellipse transform="matrix(0.0305 -0.9995 0.9995 0.0305 742.5685 2593.8533)" class="st6" cx="1708.43" cy="914.13" rx="34.02" ry="34.02"/>
	<rect x="1782.91" y="828.8" class="st1" width="45.46" height="170.66"/>
	
		<ellipse transform="matrix(0.0596 -0.9982 0.9982 0.0596 876.9757 2759.1384)" class="st6" cx="1902.86" cy="914.13" rx="34.02" ry="34.02"/>
	<rect x="1977.34" y="828.8" class="st1" width="45.46" height="170.66"/>
	<circle class="st6" cx="2097.28" cy="914.13" r="34.02"/>
	<rect x="2171.77" y="828.8" class="st1" width="45.46" height="170.66"/>
	
		<ellipse transform="matrix(0.0309 -0.9995 0.9995 0.0309 1304.9709 3174.1965)" class="st6" cx="2289.41" cy="914.13" rx="34.02" ry="34.02"/>
	<rect x="2366.19" y="828.8" class="st1" width="45.46" height="170.66"/>
	<circle class="st6" cx="2486.14" cy="914.13" r="34.02"/>
	<rect x="2560.62" y="828.8" class="st1" width="45.46" height="170.66"/>
	<rect x="2755.04" y="828.8" class="st1" width="45.46" height="170.66"/>
	
		<ellipse transform="matrix(0.1042 -0.9946 0.9946 0.1042 1492.0381 3484.8188)" class="st6" cx="2680.56" cy="914.13" rx="34.02" ry="34.02"/>
	<rect x="1250.39" y="1334.82" class="st16" width="428.63" height="195.04"/>
	<path class="st17" d="M1620.62,2153.52h-336.5v-424.9c0-19.28,15.63-34.91,34.91-34.91h266.68c19.28,0,34.91,15.63,34.91,34.91
		V2153.52z"/>
	
		<rect x="1400.92" y="1251.76" transform="matrix(-1.836970e-16 1 -1 -1.836970e-16 2897.0479 -32.3647)" class="st17" width="127.57" height="361.16"/>
	<rect x="2323.43" y="1334.82" class="st16" width="428.63" height="195.04"/>
	
		<rect x="2473.96" y="1251.76" transform="matrix(-1.836970e-16 1 -1 -1.836970e-16 3970.0864 -1105.4032)" class="st17" width="127.57" height="361.16"/>
	<rect x="1146.07" y="1595.06" class="st13" width="610.52" height="66.34"/>
	<rect x="1709.92" y="1595.06" class="st18" width="46.88" height="66.34"/>
	<path class="st17" d="M2708.08,2153.52h-336.5v-424.9c0-19.28,15.63-34.91,34.91-34.91h266.68c19.28,0,34.91,15.63,34.91,34.91
		V2153.52z"/>
	<path class="st17" d="M1470.35,1694.67c-84.48,8.96-150.27,80.43-150.27,167.28v291.57h-35.95v-291.57
		c0-92.92,75.33-168.24,168.24-168.24C1458.45,1693.7,1464.42,1694.04,1470.35,1694.67z"/>
	<path class="st17" d="M2557.82,1694.67c-84.48,8.96-150.26,80.43-150.26,167.28v291.57h-35.95v-291.57
		c0-92.92,75.33-168.24,168.24-168.24C2545.92,1693.7,2551.89,1694.04,2557.82,1694.67z"/>
	<rect x="2233.52" y="1595.06" class="st13" width="617.43" height="66.34"/>
	<path class="st1" d="M1708.43,892.58c16.65,0,30.49,11.98,33.42,27.78c0.38-2.02,0.6-4.1,0.6-6.24c0-18.79-15.23-34.02-34.02-34.02
		c-18.79,0-34.02,15.23-34.02,34.02c0,2.13,0.22,4.21,0.6,6.24C1677.94,904.56,1691.78,892.58,1708.43,892.58z"/>
	<path class="st1" d="M1902.86,892.58c16.65,0,30.49,11.98,33.42,27.78c0.38-2.02,0.6-4.1,0.6-6.24c0-18.79-15.23-34.02-34.02-34.02
		c-18.79,0-34.02,15.23-34.02,34.02c0,2.13,0.22,4.21,0.6,6.24C1872.37,904.56,1886.2,892.58,1902.86,892.58z"/>
	<path class="st1" d="M2097.28,892.58c16.65,0,30.49,11.98,33.42,27.78c0.38-2.02,0.6-4.1,0.6-6.24c0-18.79-15.23-34.02-34.02-34.02
		c-18.79,0-34.02,15.23-34.02,34.02c0,2.13,0.22,4.21,0.6,6.24C2066.79,904.56,2080.63,892.58,2097.28,892.58z"/>
	<path class="st1" d="M2289.41,892.58c16.65,0,30.49,11.98,33.42,27.78c0.38-2.02,0.6-4.1,0.6-6.24c0-18.79-15.23-34.02-34.02-34.02
		c-18.79,0-34.02,15.23-34.02,34.02c0,2.13,0.22,4.21,0.6,6.24C2258.92,904.56,2272.76,892.58,2289.41,892.58z"/>
	<path class="st1" d="M2486.14,892.58c16.65,0,30.49,11.98,33.42,27.78c0.38-2.02,0.6-4.1,0.6-6.24c0-18.79-15.23-34.02-34.02-34.02
		c-18.79,0-34.02,15.23-34.02,34.02c0,2.13,0.22,4.21,0.6,6.24C2455.65,904.56,2469.48,892.58,2486.14,892.58z"/>
	<path class="st1" d="M2680.56,892.58c16.65,0,30.49,11.98,33.42,27.78c0.38-2.02,0.6-4.1,0.6-6.24c0-18.79-15.23-34.02-34.02-34.02
		c-18.79,0-34.02,15.23-34.02,34.02c0,2.13,0.22,4.21,0.6,6.24C2650.07,904.56,2663.91,892.58,2680.56,892.58z"/>
</g>
<path class="st9" d="M476.87,2257.22l95.36-3.09l95.36-2.33l190.72-4.61l381.43-5.71l95.36-1.41l95.36-0.78l190.72-1.45l381.43-1.08
	l381.43,1.13l190.72,1.44l95.36,0.82l95.36,1.4l381.43,5.7l190.72,4.58l95.36,2.32l95.36,3.07l0.04,0c0.67,0.02,1.19,0.58,1.17,1.24
	c-0.02,0.65-0.56,1.16-1.2,1.17l-1525.73,1.2l-1525.73-1.2c-0.67,0-1.2-0.54-1.2-1.21c0-0.65,0.52-1.18,1.16-1.2L476.87,2257.22z"/>
<g>
	<g>
		<ellipse class="st1" cx="2002.59" cy="2597.23" rx="366.7" ry="58.61"/>
		<g>
			<path class="st19" d="M1817.32,2582.8c-1.14,2.96-2.76,6.23-1.36,9.08c1,2.03,3.17,3.19,5.3,3.93c5.17,1.8,10.94,1.84,16.14,0.12
				c3.22-1.06,6.39-2.81,9.77-2.53c3.77,0.31,6.82,3.03,9.92,5.2c8.24,5.77,18.75,8.19,28.69,6.63c3.09-0.49,6.21-1.38,8.69-3.29
				c2.48-1.91,4.24-4.98,3.92-8.09c-0.5-4.82-5.37-7.83-9.83-9.74c-8.05-3.45-16.55-5.83-25.21-7.06c-2.74-0.39-5.9-0.92-7.29-3.31
				c-0.88-1.52-0.77-3.41-0.64-5.16c0.63-8.2,3.56-16.39,4.19-24.59c-5.67,1.26-13.56-2.59-19.32-2.17
				c-3.57,0.26-5.75,1.06-7.3,4.35C1827.04,2558.78,1822.31,2569.85,1817.32,2582.8z"/>
			<path class="st7" d="M1952.64,1907c-46.04,41.32-80.4,95.51-98.15,154.78c-2,6.69-3.8,13.9-1.71,20.56
				c3,9.56,14.7,15.34,24.12,11.91c6.61-2.41,11.33-8.39,14.3-14.76c2.97-6.38,4.52-13.31,6.94-19.91
				c8.64-23.59,27.67-41.53,44.62-60.08c20.95-22.93,39.48-48.07,55.23-74.83c7.88-13.38,19.33-28.51,25.77-42.64
				c2.78-6.09,6.99-12.09-2.86-10.97c-7.26,0.82-20.29,6.06-26.88,9.08C1978.56,1887.21,1965.24,1895.69,1952.64,1907z"/>
			<path class="st1" d="M1952.64,1907c-46.04,41.32-80.4,95.51-98.15,154.78c-2,6.69-3.8,13.9-1.71,20.56
				c3,9.56,14.7,15.34,24.12,11.91c6.61-2.41,11.33-8.39,14.3-14.76c2.97-6.38,4.52-13.31,6.94-19.91
				c8.64-23.59,27.67-41.53,44.62-60.08c20.95-22.93,39.48-48.07,55.23-74.83c7.88-13.38,19.33-28.51,25.77-42.64
				c2.78-6.09,6.99-12.09-2.86-10.97c-7.26,0.82-20.29,6.06-26.88,9.08C1978.56,1887.21,1965.24,1895.69,1952.64,1907z"/>
			<path class="st7" d="M1886.76,2110.73c0,0,106.93-197.93,134.14-239.68L1886.76,2110.73z"/>
			<polygon class="st20" points="2010.61,1830.02 2003.75,1885.99 2022.33,1897.33 2058.62,1874.34 2039.56,1826.71 			"/>
			<polygon class="st1" points="2010.61,1830.02 2003.75,1885.99 2022.33,1897.33 2058.62,1874.34 2039.56,1826.71 			"/>
			<path class="st7" d="M2137.09,1922.96c19.62,35.98,27.55,77.41,28.63,118.38c1,38.19-3.7,76.25-9.05,114.1
				c-0.55,3.88-4.9,5.93-8.24,3.86c-10.51-6.53-26.07-16.4-28.2-21.38c-1.49-3.49-5.58-11.36-5.89-15.14
				c-5.59-68.32-20.74-135.86-44.88-200.01c-3.17-8.43-5.29-17.19-7.14-26c-1.81-8.64-9.68-25.03-3.14-32.08
				c11.06-11.92,48.85,19.63,56.04,27.46C2123.78,1901.42,2131.05,1911.88,2137.09,1922.96z"/>
			<path class="st1" d="M2137.09,1922.96c19.62,35.98,27.55,77.41,28.63,118.38c1,38.19-3.7,76.25-9.05,114.1
				c-0.55,3.88-4.9,5.93-8.24,3.86c-10.51-6.53-26.07-16.4-28.2-21.38c-1.49-3.49-5.58-11.36-5.89-15.14
				c-5.59-68.32-20.74-135.86-44.88-200.01c-3.17-8.43-5.29-17.19-7.14-26c-1.81-8.64-9.68-25.03-3.14-32.08
				c11.06-11.92,48.85,19.63,56.04,27.46C2123.78,1901.42,2131.05,1911.88,2137.09,1922.96z"/>
			<path class="st7" d="M2138.13,2574.83c-0.22,3.53-0.43,7.14,0.5,10.56c0.94,3.42,3.24,6.66,6.61,7.76
				c3.36,1.09,7.02-0.11,10.18-1.67c3.16-1.57,6.23-3.54,9.71-4.1c4.7-0.75,9.35,1.18,13.84,2.75c9.07,3.17,18.6,5.03,28.19,5.5
				c4.13,0.2,8.6,0.04,11.91-2.44c5.13-3.84,5.17-12.13,1.3-17.23s-10.5-7.4-16.89-7.9s-12.78,0.52-19.18,0.7
				c-3.07,0.09-6.4-0.11-8.77-2.06c-1.66-1.37-2.59-3.4-3.48-5.35c-2.59-5.74-5.17-11.47-7.76-17.21c-4.57,0.56-9.13,1.12-13.7,1.68
				c-2.74,0.34-9.3-0.12-10.76,2.36c-1.54,2.63-0.64,9.37-0.83,12.44C2138.72,2565.36,2138.43,2570.09,2138.13,2574.83z"/>
			<path class="st7" d="M2032.17,2572.6c0.22,3.91,0.44,7.91-0.51,11.69c-0.95,3.78-3.29,7.37-6.71,8.59
				c-3.41,1.21-7.12-0.12-10.34-1.85s-6.32-3.92-9.86-4.53c-4.77-0.83-9.49,1.3-14.05,3.04c-9.2,3.51-18.88,5.57-28.62,6.08
				c-4.2,0.22-8.73,0.05-12.09-2.7c-5.2-4.25-5.25-13.42-1.32-19.07c3.93-5.65,10.66-8.19,17.14-8.75
				c6.48-0.56,12.97,0.57,19.47,0.77c3.12,0.1,6.5-0.12,8.91-2.28c1.68-1.51,2.63-3.76,3.53-5.93c2.63-6.35,5.25-12.7,7.88-19.05
				c4.63,0.62,9.27,1.24,13.9,1.86c2.78,0.37,9.44-0.13,10.92,2.62c1.57,2.91,0.65,10.37,0.85,13.77
				C2031.57,2562.11,2031.87,2567.35,2032.17,2572.6z"/>
			<path class="st21" d="M2120.23,2137.9l56.5,414.81c-13.95,12.56-29.04,11.04-44.9,0l-65.65-300.55l-25.34,294.02h-45.25
				l-17.94-391.49C1977.66,2154.7,2016.74,2122.26,2120.23,2137.9z"/>
			<g class="st1">
				<polygon points="2022.27,2546.19 2040.84,2546.19 2066.18,2252.17 				"/>
				<path d="M2120.23,2137.9l-3.28,1.57l41.21,413.24c-3.92,3.53-7.92,5.91-12.01,7.31c10.66,3.33,20.9,1.41,30.59-7.31
					L2120.23,2137.9z"/>
			</g>
			<path class="st7" d="M2120.23,2137.9c-49.58,25.14-104.98,28.73-157.76,25.61c-31.9-85.9-25.94-182.45,13.32-264.84
				c7.67-16.09,22.6-27.54,40.08-31c15.54-3.08,29.42-4.85,49.31-5.74c26.77,40.2,46.5,83.41,52.47,131.34
				C2123.61,2041.2,2127.71,2090.19,2120.23,2137.9z"/>
			<polygon class="st20" points="1921.92,1871.07 1936.36,1920.67 1890.93,1929.02 1896.68,1854.36 			"/>
			<polygon class="st1" points="1921.92,1871.07 1936.36,1920.67 1890.93,1929.02 1896.68,1854.36 			"/>
			<path class="st19" d="M2007.72,2588.13c-0.54,3.13-1.48,6.65,0.45,9.17c1.38,1.79,3.73,2.51,5.97,2.81
				c5.42,0.75,11.09-0.34,15.85-3.04c2.95-1.68,5.71-4.01,9.09-4.4c3.76-0.44,7.28,1.64,10.74,3.15c9.21,4.04,19.99,4.36,29.43,0.88
				c2.94-1.08,5.82-2.57,7.88-4.93c2.06-2.36,3.18-5.71,2.25-8.7c-1.43-4.63-6.8-6.62-11.55-7.62c-8.57-1.8-17.37-2.47-26.11-1.98
				c-2.77,0.16-5.97,0.26-7.8-1.82c-1.17-1.32-1.43-3.19-1.64-4.94c-0.99-8.16,0.28-16.77-0.71-24.93
				c-5.31,2.35-13.81,0.12-19.37,1.66c-3.45,0.95-5.43,2.16-6.3,5.69C2012.54,2562.68,2010.07,2574.46,2007.72,2588.13z"/>
			<path class="st22" d="M1988.22,2133.03l53.38,212.65l6.76,207.03c-13.06,8.33-25.5,6.85-37.59,0l-16.75-170.74l-47.96-126.88
				l-20.85,137.93l-60.64,156.07c-15.91,8.82-28.32,7.16-38.9,0l51.48-170.53l18.48-238.6
				C1921.63,2142.11,1953.79,2138.61,1988.22,2133.03z"/>
			<g class="st1">
				<g>
					<g>
						<path d="M1905.61,2140.51c-3.41-0.1-6.74-0.28-9.97-0.54l-0.04,0.56C1898.86,2140.58,1902.19,2140.59,1905.61,2140.51z"/>
					</g>
					<g>
						<path d="M2041.6,2345.69l-53.38-212.65c-4,0.65-7.97,1.26-11.9,1.85l52.92,210.81l6.76,207.03c-4.15,2.64-8.23,4.2-12.26,5.01
							c8,1.61,16.18,0.37,24.62-5.01L2041.6,2345.69z"/>
					</g>
					<g>
						<path d="M1912.84,2393.03l-60.64,156.07c-5.13,2.84-9.85,4.49-14.31,5.33c7.75,1.64,16.49,0.32,26.67-5.33l60.64-156.07
							l20.85-137.93L1912.84,2393.03z"/>
					</g>
				</g>
			</g>
			<path class="st23" d="M1988.22,2133.03c-30.26,15.88-54.69,21.82-92.58,6.94c-17.18-42.21-46.6-91.57-45.79-137.14
				c0.43-23.85,3.72-48.62,16.79-68.57c13.07-19.95,38.1-33.65,61.08-27.24c25.07,6.99,38.75,33.71,46.44,58.58
				C1991.09,2020.38,2000.97,2077.13,1988.22,2133.03z"/>
			<path class="st1" d="M1974.16,1965.6c-7.69-24.86-21.37-51.59-46.44-58.58c-7.5-2.09-15.21-2.01-22.67-0.3
				c0.45,0.11,0.9,0.18,1.34,0.3c25.07,6.99,38.75,33.71,46.44,58.58c16.93,54.78,26.81,111.53,14.06,167.43
				c-14.57,7.65-27.8,12.95-41.83,14.78c22.78,2.82,41.48-3.4,63.15-14.78C2000.97,2077.13,1991.09,2020.38,1974.16,1965.6z"/>
			<path class="st20" d="M1855.1,2128.23c3,7.56,7.87,14.6,14.79,18.88c6.52,4.04,14.67,5.36,22.14,3.59
				c7.47-1.77,14.16-6.61,18.17-13.15c0.54-0.88,1.04-1.84,0.98-2.87c-0.14-2.21-2.82-3.4-5.02-3.17c-2.2,0.23-4.24,1.34-6.44,1.6
				s-4.9-0.83-5.13-3.04c-0.19-1.78,1.33-3.28,2.89-4.15c1.57-0.87,3.36-1.44,4.55-2.78c2.38-2.67,1.04-7.22-1.84-9.34
				s-6.69-2.4-10.26-2.38c-3.05,0.02-6.35,0.12-8.83-1.64c-2.95-2.1-3.73-6.05-4.58-9.57c-0.85-3.52-2.49-7.46-5.98-8.43
				c-2.06-0.58-4.26,0.07-6.24,0.89c-4.67,1.93-14.4,7.1-14.48,12.71C1849.74,2112.65,1852.45,2121.53,1855.1,2128.23z"/>
			<path class="st1" d="M1855.1,2128.23c3,7.56,7.87,14.6,14.79,18.88c6.52,4.04,14.67,5.36,22.14,3.59
				c7.47-1.77,14.16-6.61,18.17-13.15c0.54-0.88,1.04-1.84,0.98-2.87c-0.14-2.21-2.82-3.4-5.02-3.17c-2.2,0.23-4.24,1.34-6.44,1.6
				s-4.9-0.83-5.13-3.04c-0.19-1.78,1.33-3.28,2.89-4.15c1.57-0.87,3.36-1.44,4.55-2.78c2.38-2.67,1.04-7.22-1.84-9.34
				s-6.69-2.4-10.26-2.38c-3.05,0.02-6.35,0.12-8.83-1.64c-2.95-2.1-3.73-6.05-4.58-9.57c-0.85-3.52-2.49-7.46-5.98-8.43
				c-2.06-0.58-4.26,0.07-6.24,0.89c-4.67,1.93-14.4,7.1-14.48,12.71C1849.74,2112.65,1852.45,2121.53,1855.1,2128.23z"/>
			<path class="st20" d="M1905,1869.72c4,2.2,8.27,4.05,12.81,4.57s9.37-0.41,12.91-3.29c5.13-4.17,6.54-11.33,7.34-17.89
				c1.29-10.46,1.93-21.01,1.91-31.55c-0.01-10.03-0.71-20.39-5.25-29.33c-7.17-14.1-24.23-22.42-39.76-19.37
				c-14.27,2.8-29.62,17.12-29.17,32.56c0.48,16.46,7.26,33.27,17.53,45.99C1889.3,1858.82,1896.66,1865.13,1905,1869.72z"/>
			<g>
				<path class="st24" d="M2029.52,2016.92c-1.32,0-2.64-0.54-3.59-1.6c-1.78-1.98-1.61-5.03,0.37-6.81l220.03-197.56l-6.31-24.31
					c-0.67-2.57,0.88-5.21,3.45-5.87c2.59-0.71,5.21,0.88,5.88,3.45l7.05,27.15c0.45,1.74-0.1,3.59-1.44,4.8l-222.21,199.52
					C2031.82,2016.51,2030.67,2016.92,2029.52,2016.92z"/>
			</g>
			<path class="st25" d="M2302.61,1769.98l-111.8,43.52c-1.24,0.48-2.64-0.13-3.12-1.37l-20.22-51.95
				c-0.48-1.24,0.13-2.64,1.37-3.12l111.8-43.52c1.24-0.48,2.64,0.13,3.12,1.37l20.22,51.95
				C2304.46,1768.1,2303.85,1769.49,2302.61,1769.98z"/>
			<path class="st20" d="M1862.32,1983.35c9.67,18.78,19.33,37.56,29,56.34c2.43,4.73,5.21,9.8,10.07,11.97
				c4.2,1.88,9.05,1.16,13.59,0.41c33.65-5.56,67.3-11.11,100.94-16.67c6.73-1.11,13.68-2.3,19.4-6.02
				c6.63-4.31,11.03-12.36,9.81-20.18c-1.22-7.81-8.81-14.46-16.66-13.52c-8.84,1.06-14.29,9.93-21.66,14.93
				c-5.59,3.79-12.36,5.34-18.95,6.82c-16.98,3.8-61.02,6.31-65.02,4.8c-5.35-2.01-8.25-7.67-10.66-12.85
				c-6.74-14.48-12.04-22.04-18.78-36.52L1862.32,1983.35z"/>
			<path class="st1" d="M2044.72,2007.61c-1.32,5.27-4.79,10.08-9.4,13.07c-5.72,3.72-12.67,4.91-19.4,6.02
				c-33.65,5.56-67.3,11.11-100.94,16.67c-4.54,0.75-9.39,1.46-13.59-0.41c-4.86-2.17-7.64-7.24-10.07-11.97
				c-8.4-16.31-16.79-32.62-25.19-48.93l-3.81,1.29c9.67,18.78,19.33,37.56,29,56.34c2.44,4.73,5.21,9.8,10.07,11.97
				c4.2,1.88,9.05,1.16,13.59,0.41c33.65-5.56,67.3-11.11,100.94-16.67c6.73-1.11,13.68-2.3,19.4-6.02
				c6.63-4.31,11.03-12.36,9.81-20.17C2045.05,2008.65,2044.86,2008.14,2044.72,2007.61z"/>
			<path class="st20" d="M1982.89,1812.52c4.9,8.78,10.92,17.09,18.8,23.33c7.88,6.24,17.78,10.29,27.83,9.86
				c10.04-0.42,20.08-5.76,24.87-14.59c3.49-6.42,4.04-13.98,4.18-21.28c0.28-14.25-0.73-28.71-5.29-42.22
				c-4.56-13.51-12.94-26.07-25-33.67c-12.06-7.6-28.01-9.6-40.8-3.3C1956.02,1746.18,1970.01,1789.43,1982.89,1812.52z"/>
			<path class="st24" d="M2033.71,1746.57c8.47-1.51,16.05-7.36,19.66-15.17c3.46-7.48,3.3-16.11,2.21-24.28
				c-0.66-4.98-1.69-10.03-4.22-14.38c-2.53-4.34-6.82-7.92-11.81-8.48c-8.77-0.98-15.64,6.91-23.39,11.13
				c-11.95,6.5-26.78,4.26-39.67,8.62c-12.91,4.37-22.99,15.36-27.97,28.05c-4.98,12.69-5.23,26.89-2.57,40.26
				c2.66,13.37,8.1,26.03,14.24,38.2c3.76,7.46,8.17,15.19,16.45,18.18c4.94,1.79,10.75,0.91,14.25-3.02
				c5.24-5.9,2.35-14.43-0.66-21.35l-11.37-26.1c-1.52-3.49-0.04-7.33,3.1-9.47c1.59-1.08,2.94-2.62,3.81-4.32
				c1.95-3.83,2.11-8.28,2.45-12.56c0.34-4.28,0.99-8.79,3.68-12.14c4.96-6.19,13.01-4.44,18.43-0.27
				C2017.23,1744.8,2024.73,1748.17,2033.71,1746.57z"/>
			
				<rect x="2218.97" y="1780.07" transform="matrix(0.9319 -0.3628 0.3628 0.9319 -495.373 935.0596)" class="st24" width="46.47" height="13.09"/>
			<path class="st1" d="M2300.71,1758.27l-13.54-34.78c-2.33-5.98-9.07-8.94-15.05-6.61l-10.34,4.02l10.57,27.17
				c2.33,5.98-0.63,12.72-6.61,15.05l-84.29,32.81l2.96,7.61c2.33,5.98,9.07,8.94,15.05,6.61l94.63-36.84
				C2300.08,1770.99,2303.04,1764.25,2300.71,1758.27z"/>
		</g>
	</g>
	<path class="st23" d="M1849.83,1999.41c18.12-3.1,37.1-10.61,51.76-21.72c-8.99-21.39-8.03-48.26-0.08-70.06
		C1874.8,1920.27,1851.26,1938.89,1849.83,1999.41z"/>
	<path class="st26" d="M1849.83,1999.41c18.12-3.1,37.1-10.61,51.76-21.72c-8.99-21.39-8.03-48.26-0.08-70.06
		C1874.8,1920.27,1851.26,1938.89,1849.83,1999.41z"/>
	<path class="st22" d="M1930.6,1820.18c2.06,5.39,6.82,10.17,12.58,10.44c9.63,0.45,15.36-10.86,16.27-20.45
		c2.15-22.58-9.06-45.93-28.03-58.38c-18.96-12.45-44.85-13.44-64.71-2.49c-19.86,10.95-32.83,33.38-32.43,56.05
		c0.48,26.87,18.02,51.49,17.2,78.35c-0.75,24.62-16.59,45.79-26.43,68.37c-20.2,46.36-14.01,103.2,15.68,144.13
		c5.65,7.79,12.75,15.43,22.16,17.43c12.11,2.58,24.75-5.63,30.02-16.84c5.27-11.2,4.31-24.48,0.49-36.26s-10.29-22.48-16.02-33.46
		c-5.73-10.98-10.84-22.63-11.6-34.99c-0.99-16.13,5.54-31.78,13.52-45.83c7.99-14.05,17.59-27.26,23.74-42.21
		c6.15-14.94,8.49-32.44,1.58-47.04c-3.82-8.09-10.15-14.66-15.7-21.67c-5.55-7.01-10.57-15.07-10.95-24
		c-0.38-8.94,5.42-18.65,14.28-19.82c4.99-0.66,9.88,1.37,14.76,2.59c4.98,1.25,9.97,1.16,14.26-1.83c2.2,3.59,5.36,8.24,6.74,12.27
		C1929.73,1809.58,1928.66,1815.09,1930.6,1820.18z"/>
	<path class="st20" d="M2115.91,2195.05c-4.56,1.3-9.61,1.92-13.93-0.04c-4.32-1.96-7.36-7.27-5.44-11.61
		c1.19-2.68,3.84-4.34,6.19-6.09c6.74-4.99,12.05-11.9,15.13-19.71c-2.92,3.06-5.84,6.11-8.76,9.17c-1.74,1.82-4.38,3.78-6.49,2.42
		c-1.33-0.85-1.67-2.73-1.2-4.24c0.46-1.51,1.54-2.73,2.6-3.91c4.01-4.47,8.01-8.95,12.02-13.42c2.2-2.45,4.46-4.96,7.38-6.49
		c5.36-2.81,12.09-1.76,17.39,1.17c3.77,2.08,9.64,6,11.35,10.16c1.54,3.74-1.16,9.18-2.64,12.61c-3.91,9.1-10.43,17.08-18.54,22.77
		C2126.39,2191.03,2121.3,2193.52,2115.91,2195.05z"/>
</g>
<g>
	<g>
		<ellipse class="st1" cx="1170.99" cy="2307.56" rx="86.37" ry="12.4"/>
		<g>
			<path class="st19" d="M1210.52,2307.56h-79.06l10.08-113.04c0.71-7.97,7.39-14.08,15.39-14.08h28.12c8,0,14.68,6.11,15.39,14.08
				L1210.52,2307.56z"/>
			<path class="st1" d="M1167.06,2193.31c8,0,14.68,6.11,15.39,14.08l8.93,100.17h19.15l-10.08-113.04
				c-0.71-7.97-7.39-14.08-15.39-14.08h-28.12c-7.58,0-13.91,5.51-15.17,12.87H1167.06z"/>
			<g>
				<rect x="1069.44" y="1817.11" class="st27" width="15.71" height="7.38"/>
				<rect x="1069.44" y="1817.11" class="st28" width="15.71" height="7.38"/>
				<path class="st19" d="M1164.21,1960.89c-0.49,0-49.21-0.81-49.21-70.68c0-49.99-24.63-53.9-32.18-53.91
					c-0.66-0.02-7.89,0.01-13.36,0.04c-3.41,0.02-6.19-2.74-6.2-6.15l0,0c-0.01-3.41,2.73-6.19,6.15-6.2
					c5.49-0.02,12.75-0.05,13.44-0.04c7.43,0.01,44.52,3.25,44.52,66.27c0,57.66,35.34,58.32,36.85,58.32
					c3.41,0,6.18,2.77,6.18,6.18S1167.62,1960.89,1164.21,1960.89z"/>
			</g>
			
				<rect x="1256.2" y="1817.11" transform="matrix(-1 -1.224647e-16 1.224647e-16 -1 2528.1035 3641.5977)" class="st28" width="15.71" height="7.38"/>
			<g>
				<path class="st19" d="M1177.13,1960.89c-3.41,0-6.18-2.77-6.18-6.18s2.77-6.18,6.18-6.18c1.46-0.02,36.85-1.19,36.85-58.32
					c0-63.02,37.09-66.26,44.53-66.27c0.59,0,7.91,0.02,13.43,0.04c3.41,0.01,6.16,2.79,6.15,6.2l0,0c-0.01,3.41-2.79,6.17-6.2,6.15
					c-5.48-0.03-12.71-0.06-13.35-0.03c-7.56,0.01-32.2,3.92-32.2,53.91C1226.34,1960.08,1177.62,1960.89,1177.13,1960.89z"/>
			</g>
			<polygon class="st29" points="1095.79,1817.11 1058.79,1817.11 1041.05,1735.14 1113.52,1735.14 			"/>
			<polygon class="st11" points="1086.68,1817.11 1067.9,1817.11 1058.9,1735.14 1095.67,1735.14 			"/>
			<g class="st1">
				<g>
					<path d="M1164.21,1960.89c-0.49,0-49.21-0.81-49.21-70.68c0-49.99-24.63-53.9-32.18-53.91c-0.66-0.02-7.89,0.01-13.36,0.04
						c-3.41,0.02-6.19-2.74-6.2-6.15l0,0c-0.01-3.41,2.73-6.19,6.15-6.2c5.49-0.02,12.75-0.05,13.44-0.04
						c7.43,0.01,44.52,3.25,44.52,66.27c0,57.66,35.34,58.32,36.85,58.32c3.41,0,6.18,2.77,6.18,6.18
						S1167.62,1960.89,1164.21,1960.89z"/>
				</g>
			</g>
			<g class="st1">
				<g>
					<path d="M1177.13,1960.89c-3.41,0-6.18-2.77-6.18-6.18s2.77-6.18,6.18-6.18c1.46-0.02,36.85-1.19,36.85-58.32
						c0-63.02,37.09-66.26,44.53-66.27c0.59,0,7.91,0.02,13.43,0.04c3.41,0.01,6.16,2.79,6.15,6.2l0,0
						c-0.01,3.41-2.79,6.17-6.2,6.15c-5.48-0.03-12.71-0.06-13.35-0.03c-7.56,0.01-32.2,3.92-32.2,53.91
						C1226.34,1960.08,1177.62,1960.89,1177.13,1960.89z"/>
				</g>
			</g>
			<rect x="1164.21" y="1757.64" class="st19" width="13.56" height="422.81"/>
			<path class="st28" d="M1196.58,1757.64h-51.17c-0.46,0-0.83-0.37-0.83-0.83v-6.35c0-0.46,0.37-0.83,0.83-0.83h51.17
				c0.46,0,0.83,0.37,0.83,0.83v6.35C1197.41,1757.26,1197.04,1757.64,1196.58,1757.64z"/>
			<rect x="1162.47" y="1741.62" class="st27" width="17.05" height="8.01"/>
			<polygon class="st29" points="1191.08,1741.62 1150.91,1741.62 1131.66,1639.56 1210.33,1639.56 			"/>
			<polygon class="st11" points="1181.19,1741.62 1160.8,1741.62 1151.03,1639.56 1190.95,1639.56 			"/>
			<path class="st19" d="M1190.95,1634.91h-39.92v-18.21c0-2.29,1.85-4.14,4.14-4.14h31.63c2.29,0,4.14,1.85,4.14,4.14V1634.91z"/>
			<path class="st28" d="M1218.96,1639.56h-95.93c-0.53,0-0.96-0.43-0.96-0.97v-7.37c0-0.53,0.43-0.96,0.96-0.96h95.93
				c0.53,0,0.96,0.43,0.96,0.96v7.37C1219.92,1639.13,1219.49,1639.56,1218.96,1639.56z"/>
			<path class="st19" d="M1095.67,1731.4h-36.77v-16.77c0-2.11,1.71-3.81,3.81-3.81h29.14c2.11,0,3.81,1.71,3.81,3.81V1731.4z"/>
			<path class="st19" d="M1245.67,1731.4h36.77v-16.77c0-2.11-1.71-3.81-3.81-3.81h-29.14c-2.11,0-3.81,1.71-3.81,3.81V1731.4z"/>
			<path class="st28" d="M1121.58,1735.14h-88.59c-0.43,0-0.78-0.35-0.78-0.78v-5.92c0-0.43,0.35-0.78,0.78-0.78h88.59
				c0.43,0,0.78,0.35,0.78,0.78v5.92C1122.36,1734.79,1122.01,1735.14,1121.58,1735.14z"/>
			<rect x="1162.47" y="1741.62" class="st19" width="17.05" height="8.01"/>
			<polygon class="st29" points="1245.55,1817.11 1282.56,1817.11 1300.29,1735.14 1227.82,1735.14 			"/>
			<polygon class="st11" points="1273.44,1817.11 1254.66,1817.11 1245.67,1735.14 1282.44,1735.14 			"/>
			<path class="st28" d="M1219.76,1735.14h88.59c0.43,0,0.78-0.35,0.78-0.78v-5.92c0-0.43-0.35-0.78-0.78-0.78h-88.59
				c-0.43,0-0.78,0.35-0.78,0.78v5.92C1218.98,1734.79,1219.33,1735.14,1219.76,1735.14z"/>
		</g>
	</g>
	<g>
		<ellipse class="st1" cx="2830.43" cy="2307.56" rx="86.37" ry="12.4"/>
		<g>
			<path class="st19" d="M2869.96,2307.56h-79.06l10.08-113.04c0.71-7.97,7.39-14.08,15.39-14.08h28.12c8,0,14.68,6.11,15.39,14.08
				L2869.96,2307.56z"/>
			<path class="st1" d="M2826.5,2193.31c8,0,14.68,6.11,15.39,14.08l8.93,100.17h19.15l-10.08-113.04
				c-0.71-7.97-7.39-14.08-15.39-14.08h-28.12c-7.58,0-13.91,5.51-15.17,12.87H2826.5z"/>
			<g>
				<rect x="2728.88" y="1817.11" class="st27" width="15.71" height="7.38"/>
				<rect x="2728.88" y="1817.11" class="st28" width="15.71" height="7.38"/>
				<path class="st19" d="M2823.65,1960.89c-0.49,0-49.21-0.81-49.21-70.68c0-49.99-24.63-53.9-32.18-53.91
					c-0.66-0.02-7.89,0.01-13.36,0.04c-3.41,0.02-6.19-2.74-6.2-6.15l0,0c-0.01-3.41,2.73-6.19,6.15-6.2
					c5.49-0.02,12.75-0.05,13.44-0.04c7.43,0.01,44.52,3.25,44.52,66.27c0,57.66,35.34,58.32,36.85,58.32
					c3.41,0,6.18,2.77,6.18,6.18S2827.06,1960.89,2823.65,1960.89z"/>
			</g>
			
				<rect x="2915.64" y="1817.11" transform="matrix(-1 -1.224647e-16 1.224647e-16 -1 5846.9844 3641.5977)" class="st28" width="15.71" height="7.38"/>
			<g>
				<path class="st19" d="M2836.57,1960.89c-3.41,0-6.18-2.77-6.18-6.18s2.77-6.18,6.18-6.18c1.46-0.02,36.85-1.19,36.85-58.32
					c0-63.02,37.09-66.26,44.53-66.27c0.59,0,7.91,0.02,13.43,0.04c3.41,0.01,6.16,2.79,6.15,6.2l0,0c-0.01,3.41-2.79,6.17-6.2,6.15
					c-5.48-0.03-12.71-0.06-13.35-0.03c-7.56,0.01-32.2,3.92-32.2,53.91C2885.78,1960.08,2837.06,1960.89,2836.57,1960.89z"/>
			</g>
			<polygon class="st29" points="2755.23,1817.11 2718.23,1817.11 2700.5,1735.14 2772.96,1735.14 			"/>
			<polygon class="st11" points="2746.12,1817.11 2727.34,1817.11 2718.34,1735.14 2755.11,1735.14 			"/>
			<g class="st1">
				<g>
					<path d="M2823.65,1960.89c-0.49,0-49.21-0.81-49.21-70.68c0-49.99-24.63-53.9-32.18-53.91c-0.66-0.02-7.89,0.01-13.36,0.04
						c-3.41,0.02-6.19-2.74-6.2-6.15l0,0c-0.01-3.41,2.73-6.19,6.15-6.2c5.49-0.02,12.75-0.05,13.44-0.04
						c7.43,0.01,44.52,3.25,44.52,66.27c0,57.66,35.34,58.32,36.85,58.32c3.41,0,6.18,2.77,6.18,6.18
						S2827.06,1960.89,2823.65,1960.89z"/>
				</g>
			</g>
			<g class="st1">
				<g>
					<path d="M2836.57,1960.89c-3.41,0-6.18-2.77-6.18-6.18s2.77-6.18,6.18-6.18c1.46-0.02,36.85-1.19,36.85-58.32
						c0-63.02,37.09-66.26,44.53-66.27c0.59,0,7.91,0.02,13.43,0.04c3.41,0.01,6.16,2.79,6.15,6.2l0,0
						c-0.01,3.41-2.79,6.17-6.2,6.15c-5.48-0.03-12.71-0.06-13.35-0.03c-7.56,0.01-32.2,3.92-32.2,53.91
						C2885.78,1960.08,2837.06,1960.89,2836.57,1960.89z"/>
				</g>
			</g>
			<rect x="2823.65" y="1757.64" class="st19" width="13.56" height="422.81"/>
			<path class="st28" d="M2856.02,1757.64h-51.17c-0.46,0-0.83-0.37-0.83-0.83v-6.35c0-0.46,0.37-0.83,0.83-0.83h51.17
				c0.46,0,0.83,0.37,0.83,0.83v6.35C2856.85,1757.26,2856.48,1757.64,2856.02,1757.64z"/>
			<rect x="2821.91" y="1741.62" class="st27" width="17.05" height="8.01"/>
			<polygon class="st29" points="2850.52,1741.62 2810.35,1741.62 2791.1,1639.56 2869.77,1639.56 			"/>
			<polygon class="st11" points="2840.63,1741.62 2820.24,1741.62 2810.47,1639.56 2850.39,1639.56 			"/>
			<path class="st19" d="M2850.39,1634.91h-39.92v-18.21c0-2.29,1.85-4.14,4.14-4.14h31.63c2.29,0,4.14,1.85,4.14,4.14V1634.91z"/>
			<path class="st28" d="M2878.4,1639.56h-95.93c-0.53,0-0.96-0.43-0.96-0.97v-7.37c0-0.53,0.43-0.96,0.96-0.96h95.93
				c0.53,0,0.97,0.43,0.97,0.96v7.37C2879.36,1639.13,2878.93,1639.56,2878.4,1639.56z"/>
			<path class="st19" d="M2755.11,1731.4h-36.77v-16.77c0-2.11,1.71-3.81,3.81-3.81h29.14c2.11,0,3.81,1.71,3.81,3.81V1731.4z"/>
			<path class="st19" d="M2905.11,1731.4h36.77v-16.77c0-2.11-1.71-3.81-3.81-3.81h-29.14c-2.11,0-3.81,1.71-3.81,3.81V1731.4z"/>
			<path class="st28" d="M2781.02,1735.14h-88.59c-0.43,0-0.78-0.35-0.78-0.78v-5.92c0-0.43,0.35-0.78,0.78-0.78h88.59
				c0.43,0,0.78,0.35,0.78,0.78v5.92C2781.8,1734.79,2781.45,1735.14,2781.02,1735.14z"/>
			<rect x="2821.91" y="1741.62" class="st19" width="17.05" height="8.01"/>
			<polygon class="st29" points="2904.99,1817.11 2942,1817.11 2959.73,1735.14 2887.26,1735.14 			"/>
			<polygon class="st11" points="2932.88,1817.11 2914.1,1817.11 2905.11,1735.14 2941.88,1735.14 			"/>
			<path class="st28" d="M2879.2,1735.14h88.59c0.43,0,0.78-0.35,0.78-0.78v-5.92c0-0.43-0.35-0.78-0.78-0.78h-88.59
				c-0.43,0-0.78,0.35-0.78,0.78v5.92C2878.42,1734.79,2878.77,1735.14,2879.2,1735.14z"/>
		</g>
	</g>
</g>
<g>
	<ellipse class="st1" cx="2441.48" cy="2344.17" rx="141.71" ry="9.74"/>
	<g>
		<path class="st2" d="M2561.54,2308.95c0-19.83-16.08-35.91-35.91-35.91c-1.52,0-3.02,0.11-4.49,0.29c0.01-0.25,0.02-0.5,0.02-0.75
			c0-20.1-16.29-36.39-36.39-36.39c-2.16,0-4.28,0.2-6.34,0.56c-0.19-7.37-2.56-14.2-6.51-19.85c0,0-0.01-0.01-0.01-0.01
			c-0.32-0.46-0.66-0.92-1-1.37c-0.01-0.02-0.02-0.03-0.04-0.04c-0.34-0.44-0.68-0.87-1.04-1.29c-0.02-0.02-0.04-0.05-0.06-0.07
			c-0.35-0.41-0.7-0.81-1.07-1.2c-0.03-0.04-0.07-0.07-0.1-0.11c-0.36-0.38-0.72-0.75-1.09-1.12c-0.05-0.05-0.1-0.09-0.14-0.14
			c-0.36-0.35-0.73-0.7-1.11-1.03c-0.06-0.05-0.13-0.11-0.19-0.16c-0.37-0.32-0.74-0.64-1.12-0.95c-0.08-0.06-0.16-0.12-0.24-0.19
			c-0.37-0.29-0.74-0.58-1.12-0.86c-0.1-0.07-0.19-0.14-0.29-0.21c-0.37-0.26-0.74-0.53-1.12-0.78c-0.11-0.08-0.23-0.15-0.35-0.22
			c-0.37-0.24-0.73-0.47-1.11-0.7c-0.13-0.08-0.27-0.15-0.41-0.23c-0.36-0.21-0.73-0.42-1.1-0.62c-0.15-0.08-0.31-0.16-0.46-0.24
			c-0.36-0.19-0.72-0.37-1.09-0.55c-0.17-0.08-0.35-0.16-0.52-0.24c-0.35-0.16-0.71-0.32-1.07-0.48c-0.19-0.08-0.39-0.15-0.59-0.23
			c-0.35-0.14-0.69-0.28-1.05-0.41c-0.21-0.08-0.43-0.14-0.65-0.22c-0.34-0.12-0.68-0.24-1.03-0.34c-0.23-0.07-0.47-0.13-0.71-0.2
			c-0.33-0.09-0.66-0.19-1-0.28c-0.26-0.07-0.52-0.12-0.78-0.18c-0.32-0.07-0.64-0.15-0.96-0.22c-0.28-0.06-0.57-0.1-0.85-0.15
			c-0.31-0.05-0.61-0.12-0.92-0.16c-0.31-0.05-0.63-0.08-0.94-0.12c-0.29-0.04-0.58-0.08-0.87-0.11c-0.36-0.04-0.73-0.06-1.1-0.08
			c-0.24-0.02-0.48-0.04-0.73-0.05c-0.59-0.03-1.18-0.04-1.77-0.04c-0.03,0-0.06,0-0.09,0c0,0,0,0,0,0c0,0,0,0,0,0
			c-0.03,0-0.06,0-0.09,0c-0.59,0-1.18,0.02-1.77,0.04c-0.24,0.01-0.49,0.04-0.73,0.05c-0.37,0.03-0.74,0.05-1.1,0.08
			c-0.29,0.03-0.58,0.07-0.87,0.11c-0.31,0.04-0.63,0.07-0.94,0.12c-0.31,0.05-0.62,0.11-0.92,0.16c-0.28,0.05-0.57,0.09-0.85,0.15
			c-0.32,0.07-0.64,0.14-0.96,0.22c-0.26,0.06-0.52,0.11-0.78,0.18c-0.34,0.09-0.67,0.18-1,0.28c-0.24,0.07-0.48,0.13-0.71,0.2
			c-0.35,0.11-0.69,0.23-1.03,0.34c-0.21,0.07-0.43,0.14-0.65,0.22c-0.35,0.13-0.7,0.27-1.05,0.41c-0.2,0.08-0.39,0.15-0.59,0.23
			c-0.36,0.15-0.72,0.31-1.07,0.48c-0.17,0.08-0.35,0.15-0.52,0.24c-0.37,0.17-0.73,0.36-1.09,0.55c-0.15,0.08-0.31,0.15-0.46,0.24
			c-0.37,0.2-0.74,0.41-1.1,0.62c-0.13,0.08-0.27,0.15-0.41,0.23c-0.38,0.22-0.74,0.46-1.11,0.7c-0.12,0.08-0.23,0.15-0.35,0.22
			c-0.38,0.25-0.75,0.51-1.12,0.78c-0.1,0.07-0.2,0.14-0.29,0.21c-0.38,0.28-0.75,0.57-1.12,0.86c-0.08,0.06-0.16,0.12-0.24,0.19
			c-0.38,0.31-0.75,0.62-1.12,0.95c-0.06,0.05-0.13,0.11-0.19,0.16c-0.38,0.34-0.74,0.68-1.11,1.03c-0.05,0.05-0.1,0.09-0.14,0.14
			c-0.37,0.36-0.73,0.74-1.09,1.12c-0.03,0.04-0.07,0.07-0.1,0.11c-0.37,0.39-0.72,0.79-1.07,1.2c-0.02,0.02-0.04,0.05-0.06,0.07
			c-0.36,0.42-0.7,0.85-1.04,1.29c-0.01,0.02-0.02,0.03-0.04,0.04c-0.34,0.45-0.68,0.9-1,1.37c0,0,0,0.01-0.01,0.01
			c-3.95,5.65-6.32,12.48-6.51,19.85c-2.06-0.36-4.17-0.56-6.34-0.56c-20.1,0-36.39,16.29-36.39,36.39c0,0.25,0.01,0.5,0.02,0.75
			c-1.47-0.18-2.97-0.29-4.49-0.29c-19.83,0-35.91,16.08-35.91,35.91c0,19.83,16.08,35.91,35.91,35.91h169.28l-0.04-0.07
			C2546.59,2343.69,2561.54,2328.07,2561.54,2308.95z"/>
		<path class="st1" d="M2527.74,2344.78l0.05,0.07H2358.5c-11.43,0-21.63-5.35-28.18-13.69c4.15,0.29,8.34,0.43,12.56,0.43
			c69.41,0,129.28-37.72,156.84-92.17c12.63,5.67,21.44,18.4,21.44,33.16c0,0.25-0.02,0.5-0.02,0.75c1.47-0.18,2.97-0.29,4.49-0.29
			c19.83,0,35.91,16.07,35.91,35.91C2561.54,2328.07,2546.6,2343.69,2527.74,2344.78z"/>
	</g>
</g>
<g>
	<ellipse class="st1" cx="1435.23" cy="2353.28" rx="153.15" ry="10.52"/>
	<g>
		<path class="st3" d="M1564.98,2315.21c0-21.43-17.37-38.81-38.81-38.81c-1.65,0-3.26,0.11-4.86,0.31
			c0.01-0.27,0.02-0.54,0.02-0.81c0-21.72-17.61-39.32-39.32-39.32c-2.34,0-4.62,0.22-6.85,0.61c-0.2-7.97-2.77-15.34-7.03-21.46
			c0,0-0.01-0.01-0.01-0.01c-0.35-0.5-0.71-0.99-1.08-1.48c-0.01-0.02-0.03-0.03-0.04-0.05c-0.36-0.47-0.74-0.94-1.12-1.39
			c-0.02-0.03-0.05-0.05-0.07-0.08c-0.38-0.44-0.76-0.88-1.16-1.3c-0.04-0.04-0.07-0.08-0.11-0.11c-0.39-0.41-0.78-0.81-1.18-1.21
			c-0.05-0.05-0.1-0.1-0.16-0.15c-0.39-0.38-0.79-0.75-1.19-1.11c-0.07-0.06-0.14-0.12-0.2-0.18c-0.4-0.35-0.8-0.69-1.21-1.02
			c-0.08-0.07-0.17-0.14-0.26-0.2c-0.4-0.32-0.8-0.63-1.21-0.93c-0.1-0.08-0.21-0.15-0.32-0.22c-0.4-0.29-0.8-0.57-1.21-0.84
			c-0.12-0.08-0.25-0.16-0.38-0.24c-0.4-0.26-0.79-0.51-1.2-0.75c-0.14-0.09-0.29-0.17-0.44-0.25c-0.39-0.23-0.79-0.46-1.19-0.67
			c-0.16-0.09-0.33-0.17-0.5-0.25c-0.39-0.2-0.78-0.4-1.18-0.59c-0.19-0.09-0.38-0.17-0.56-0.25c-0.38-0.18-0.77-0.35-1.16-0.51
			c-0.21-0.09-0.42-0.17-0.63-0.25c-0.38-0.15-0.75-0.3-1.13-0.44c-0.23-0.08-0.46-0.16-0.7-0.24c-0.37-0.13-0.74-0.25-1.11-0.37
			c-0.25-0.08-0.51-0.14-0.77-0.22c-0.36-0.1-0.72-0.21-1.08-0.3c-0.28-0.07-0.56-0.13-0.85-0.2c-0.35-0.08-0.69-0.17-1.04-0.24
			c-0.3-0.06-0.61-0.11-0.92-0.16c-0.33-0.06-0.66-0.12-1-0.18c-0.34-0.05-0.68-0.09-1.01-0.13c-0.31-0.04-0.62-0.09-0.94-0.12
			c-0.39-0.04-0.79-0.06-1.19-0.09c-0.26-0.02-0.52-0.05-0.79-0.06c-0.63-0.03-1.27-0.05-1.91-0.05c-0.03,0-0.06,0-0.09,0
			c0,0,0,0,0,0c0,0,0,0,0,0c-0.03,0-0.06,0-0.09,0c-0.64,0-1.28,0.02-1.91,0.05c-0.26,0.01-0.53,0.04-0.79,0.06
			c-0.4,0.03-0.8,0.05-1.19,0.09c-0.31,0.03-0.62,0.08-0.94,0.12c-0.34,0.04-0.68,0.08-1.01,0.13c-0.34,0.05-0.67,0.12-1,0.18
			c-0.31,0.05-0.62,0.1-0.92,0.16c-0.35,0.07-0.69,0.16-1.04,0.24c-0.28,0.07-0.57,0.12-0.85,0.2c-0.36,0.09-0.72,0.2-1.08,0.3
			c-0.26,0.07-0.51,0.14-0.77,0.22c-0.37,0.11-0.74,0.24-1.11,0.37c-0.23,0.08-0.47,0.15-0.7,0.24c-0.38,0.14-0.76,0.29-1.13,0.44
			c-0.21,0.08-0.43,0.16-0.63,0.25c-0.39,0.16-0.77,0.34-1.16,0.51c-0.19,0.09-0.38,0.17-0.56,0.25c-0.4,0.19-0.79,0.39-1.18,0.59
			c-0.17,0.09-0.33,0.17-0.5,0.25c-0.4,0.22-0.8,0.44-1.19,0.67c-0.15,0.08-0.29,0.17-0.44,0.25c-0.41,0.24-0.8,0.5-1.2,0.75
			c-0.12,0.08-0.25,0.16-0.38,0.24c-0.41,0.27-0.81,0.55-1.21,0.84c-0.1,0.08-0.21,0.15-0.32,0.22c-0.41,0.3-0.81,0.61-1.21,0.93
			c-0.09,0.07-0.17,0.13-0.26,0.2c-0.41,0.33-0.81,0.67-1.21,1.02c-0.07,0.06-0.14,0.12-0.2,0.18c-0.41,0.36-0.8,0.74-1.2,1.11
			c-0.05,0.05-0.1,0.1-0.16,0.15c-0.4,0.39-0.79,0.8-1.18,1.21c-0.04,0.04-0.07,0.08-0.11,0.12c-0.4,0.42-0.78,0.86-1.16,1.3
			c-0.02,0.03-0.05,0.05-0.07,0.08c-0.39,0.45-0.76,0.92-1.12,1.39c-0.01,0.02-0.03,0.03-0.04,0.05c-0.37,0.48-0.73,0.98-1.08,1.48
			c0,0-0.01,0.01-0.01,0.01c-4.26,6.11-6.83,13.49-7.03,21.46c-2.23-0.39-4.51-0.61-6.85-0.61c-21.72,0-39.32,17.61-39.32,39.32
			c0,0.27,0.02,0.54,0.02,0.81c-1.59-0.2-3.21-0.31-4.86-0.31c-21.43,0-38.81,17.37-38.81,38.81c0,21.43,17.37,38.81,38.81,38.81
			h182.95l-0.04-0.07C1548.83,2352.76,1564.98,2335.88,1564.98,2315.21z"/>
		<path class="st1" d="M1528.45,2353.94l0.06,0.08h-182.96c-12.36,0-23.38-5.78-30.46-14.79c4.49,0.31,9.01,0.46,13.58,0.46
			c75.01,0,139.72-40.77,169.5-99.61c13.65,6.13,23.17,19.88,23.17,35.83c0,0.27-0.02,0.54-0.02,0.81c1.59-0.19,3.21-0.31,4.85-0.31
			c21.43,0,38.81,17.37,38.81,38.81C1564.98,2335.88,1548.84,2352.76,1528.45,2353.94z"/>
	</g>
</g>
<path class="st0" d="M2754.83,527.43c-6.55,0-12.76,1.4-18.4,3.89c-4.68-38.61-37.5-68.54-77.37-68.54
	c-31.97,0-59.4,19.25-71.45,46.77c-7.99-4.16-17.04-6.54-26.66-6.54c-31.97,0-57.89,25.92-57.89,57.89
	c0,31.97,25.92,57.89,57.89,57.89h193.89c25.23,0,45.68-20.45,45.68-45.68C2800.5,547.88,2780.05,527.43,2754.83,527.43z"/>
</svg>
