<?xml version="1.0" encoding="utf-8"?>
<!-- Generator: Adobe Illustrator 24.1.2, SVG Export Plug-In . SVG Version: 6.00 Build 0)  -->
<svg version="1.1" id="Layer_1" xmlns="http://www.w3.org/2000/svg" xmlns:xlink="http://www.w3.org/1999/xlink" x="0px" y="0px"
	 viewBox="0 0 4000 2666.67" style="enable-background:new 0 0 4000 2666.67;" xml:space="preserve">
<style type="text/css">
	.st0{fill:#FFFFFF;}
	.st1{fill:url(#SVGID_1_);}
	.st2{fill:#43405E;}
	.st3{fill:url(#SVGID_2_);}
	.st4{fill:#30314A;}
	.st5{fill:#F5A863;}
	.st6{fill:url(#SVGID_3_);}
	.st7{fill:url(#SVGID_4_);}
	.st8{fill:url(#SVGID_5_);}
	.st9{fill:url(#SVGID_6_);}
	.st10{fill:url(#SVGID_7_);}
	.st11{fill:url(#SVGID_8_);}
	.st12{fill:url(#SVGID_9_);}
	.st13{fill:url(#SVGID_10_);}
	.st14{fill:url(#SVGID_11_);}
	.st15{fill:url(#SVGID_12_);}
	.st16{fill:url(#SVGID_13_);}
	.st17{fill:url(#SVGID_14_);}
	.st18{fill:url(#SVGID_15_);}
	.st19{fill:url(#SVGID_16_);}
	.st20{fill:url(#SVGID_17_);}
	.st21{fill:url(#SVGID_18_);}
	.st22{fill:url(#SVGID_19_);}
	.st23{fill:url(#SVGID_20_);}
	.st24{fill:url(#SVGID_21_);}
	.st25{fill:url(#SVGID_22_);}
	.st26{fill:url(#SVGID_23_);}
	.st27{fill:url(#SVGID_24_);}
	.st28{fill:url(#SVGID_25_);}
	.st29{fill:url(#SVGID_26_);}
	.st30{fill:url(#SVGID_27_);}
	.st31{fill:#5E63A5;}
	.st32{fill:#EE5F61;}
	.st33{fill:url(#SVGID_28_);}
	.st34{fill:#3DB7AF;}
	.st35{fill:url(#SVGID_29_);}
	.st36{fill:url(#SVGID_30_);}
	.st37{fill:url(#SVGID_31_);}
	.st38{fill:url(#SVGID_32_);}
	.st39{fill:url(#SVGID_33_);}
	.st40{fill:url(#SVGID_34_);}
	.st41{fill:url(#SVGID_35_);}
	.st42{fill:url(#SVGID_36_);}
	.st43{fill:url(#SVGID_37_);}
	.st44{fill:#3DB6B0;}
	.st45{fill:#593D5A;}
	.st46{opacity:0.1;}
	.st47{fill:#9EC2D9;}
	.st48{fill:#FFCEBF;}
	.st49{fill:url(#SVGID_38_);}
	.st50{opacity:0.2;}
	.st51{opacity:0.1;fill:#5B595A;}
	.st52{fill:#5B595A;}
	.st53{fill:#4A3249;}
	.st54{fill:#98B9EE;}
	.st55{fill:url(#SVGID_39_);}
	.st56{fill:url(#SVGID_40_);}
</style>
<rect y="0" class="st0" width="4000" height="2666.67"/>
<linearGradient id="SVGID_1_" gradientUnits="userSpaceOnUse" x1="1983.5123" y1="36.0471" x2="1983.5123" y2="2651.7617">
	<stop  offset="0" style="stop-color:#E7F3FF"/>
	<stop  offset="1" style="stop-color:#C6CEFF"/>
</linearGradient>
<path class="st1" d="M3645.86,2130.32c42.68-105.24,47.92-221.33,52.61-334.8c9.2-222.44,18.4-444.87,27.6-667.31
	c5.32-128.51,10.42-259.22-21.62-383.78c-32.04-124.57-107.22-244.37-223.6-299.13c-224.44-105.6-485.99,62.32-732.4,33.94
	c-143.95-16.58-271.01-98.96-408.93-143.41c-204.55-65.92-425.52-46.51-639.49-26.4c-293.69,27.6-587.37,55.21-881.06,82.81
	c-140.63,13.22-283.9,27.09-413.75,82.69c-55.05,23.57-109.1,56.5-139.96,107.82c-53.75,89.38-22.2,204.99,23.12,298.94
	c45.31,93.94,104.56,187.67,103.2,291.97c-1.74,133.52-101.83,244.67-136.38,373.65c-34.23,127.78-2,262.86,30.21,391.17
	c26.47,105.43,55.33,215.47,128.31,296.02c67.76,74.78,165.24,114.64,261.05,146.31c165.47,54.7,336.65,92.13,509.86,111.47
	c218.37,24.38,438.77,20.03,658.49,20.53c143.6,0.33,287.18,2.74,430.76,5.16c162.18,2.73,324.51,5.45,486.5-2.69
	c152.04-7.64,304.32-25.06,451.98-63.08c117.83-30.33,196.25-74.27,292.23-144.49C3567.95,2261.34,3616.13,2203.62,3645.86,2130.32z
	"/>
<path class="st2" d="M3706.82,2274.82c-284.47,9.44-568.94,14.37-853.41,17.69l-106.68,1.33l-106.68,0.85l-213.35,1.6l-426.71,1.19
	l-426.71-1.25l-213.35-1.59l-106.68-0.87l-106.68-1.32c-284.47-3.33-568.94-8.24-853.41-17.62l-0.04,0
	c-0.74-0.02-1.31-0.64-1.29-1.38c0.02-0.72,0.62-1.29,1.33-1.29l1706.82-1.33l1706.82,1.33c0.74,0,1.33,0.6,1.33,1.33
	c0,0.72-0.57,1.31-1.29,1.33L3706.82,2274.82z"/>
<rect x="553.88" y="579.61" class="st0" width="2892.23" height="1692.23"/>
<linearGradient id="SVGID_2_" gradientUnits="userSpaceOnUse" x1="2000.0007" y1="2409.2554" x2="2000.0007" y2="676.8763">
	<stop  offset="0" style="stop-color:#3D3E5A"/>
	<stop  offset="1" style="stop-color:#514D73"/>
</linearGradient>
<rect x="593.88" y="622.9" class="st3" width="2812.24" height="1612.24"/>
<g>
	<g>
		<rect x="593.88" y="1961.81" class="st4" width="2812.23" height="2.67"/>
	</g>
	<g>
		<rect x="593.88" y="1693.1" class="st4" width="2812.23" height="2.67"/>
	</g>
	<g>
		<rect x="593.88" y="1424.39" class="st4" width="2812.23" height="2.67"/>
	</g>
	<g>
		<rect x="593.88" y="1155.69" class="st4" width="2812.23" height="2.67"/>
	</g>
	<g>
		<rect x="593.88" y="886.98" class="st4" width="2812.23" height="2.67"/>
	</g>
	<g>
		<rect x="3092.32" y="622.9" class="st4" width="2.67" height="1612.24"/>
	</g>
	<g>
		<rect x="2779.84" y="622.9" class="st4" width="2.67" height="1612.24"/>
	</g>
	<g>
		<rect x="2467.37" y="622.9" class="st4" width="2.67" height="1612.24"/>
	</g>
	<g>
		<rect x="2154.9" y="622.9" class="st4" width="2.67" height="1612.24"/>
	</g>
	<g>
		<rect x="1842.43" y="622.9" class="st4" width="2.67" height="1612.24"/>
	</g>
	<g>
		<rect x="1529.96" y="622.9" class="st4" width="2.67" height="1612.24"/>
	</g>
	<g>
		<rect x="1217.49" y="622.9" class="st4" width="2.67" height="1612.24"/>
	</g>
	<g>
		<rect x="905.02" y="622.9" class="st4" width="2.67" height="1612.24"/>
	</g>
</g>
<g>
	<g>
		<polygon class="st5" points="749.2,2139.12 731.27,2119.39 1218.58,1676.64 1527.83,1942.57 1840.3,1405.16 2152.77,1673.87 
			2465.24,1136.46 2777.71,1405.16 3084.47,877.57 3107.52,890.98 2784.64,1446.29 2472.17,1177.59 2159.7,1715 1847.23,1446.29 
			1534.76,1983.7 1219.07,1712.23 		"/>
	</g>
	<g>
		<polygon class="st5" points="3143.69,934.51 3144.09,801.57 3028.75,867.68 		"/>
	</g>
</g>
<g>
	<linearGradient id="SVGID_3_" gradientUnits="userSpaceOnUse" x1="1062.589" y1="926.9017" x2="1062.589" y2="1931.0059">
		<stop  offset="0" style="stop-color:#6DA9EF"/>
		<stop  offset="1" style="stop-color:#6E87EE"/>
	</linearGradient>
	<rect x="1049.41" y="1896.31" class="st6" width="26.35" height="232.94"/>
	<linearGradient id="SVGID_4_" gradientUnits="userSpaceOnUse" x1="1140.7067" y1="926.9018" x2="1140.7067" y2="1931.0061">
		<stop  offset="0" style="stop-color:#6DA9EF"/>
		<stop  offset="1" style="stop-color:#6E87EE"/>
	</linearGradient>
	<rect x="1127.53" y="1840.94" class="st7" width="26.35" height="288.31"/>
	<linearGradient id="SVGID_5_" gradientUnits="userSpaceOnUse" x1="1218.8243" y1="926.9027" x2="1218.8243" y2="1931.0074">
		<stop  offset="0" style="stop-color:#6DA9EF"/>
		<stop  offset="1" style="stop-color:#6E87EE"/>
	</linearGradient>
	<rect x="1205.65" y="1782.9" class="st8" width="26.35" height="346.35"/>
	<linearGradient id="SVGID_6_" gradientUnits="userSpaceOnUse" x1="1296.9419" y1="926.9018" x2="1296.9419" y2="1931.0061">
		<stop  offset="0" style="stop-color:#6DA9EF"/>
		<stop  offset="1" style="stop-color:#6E87EE"/>
	</linearGradient>
	<rect x="1283.77" y="1840.94" class="st9" width="26.35" height="288.31"/>
	<linearGradient id="SVGID_7_" gradientUnits="userSpaceOnUse" x1="1453.1772" y1="926.9022" x2="1453.1772" y2="1931.0068">
		<stop  offset="0" style="stop-color:#6DA9EF"/>
		<stop  offset="1" style="stop-color:#6E87EE"/>
	</linearGradient>
	<rect x="1440" y="1947.61" class="st10" width="26.35" height="181.65"/>
	<linearGradient id="SVGID_8_" gradientUnits="userSpaceOnUse" x1="1531.2949" y1="926.9003" x2="1531.2949" y2="1931.0017">
		<stop  offset="0" style="stop-color:#6DA9EF"/>
		<stop  offset="1" style="stop-color:#6E87EE"/>
	</linearGradient>
	<rect x="1518.12" y="2048.63" class="st11" width="26.35" height="80.63"/>
	<linearGradient id="SVGID_9_" gradientUnits="userSpaceOnUse" x1="1609.4126" y1="926.9022" x2="1609.4126" y2="1931.0067">
		<stop  offset="0" style="stop-color:#6DA9EF"/>
		<stop  offset="1" style="stop-color:#6E87EE"/>
	</linearGradient>
	<rect x="1596.24" y="1910.43" class="st12" width="26.35" height="218.82"/>
	<linearGradient id="SVGID_10_" gradientUnits="userSpaceOnUse" x1="1765.6478" y1="926.9024" x2="1765.6478" y2="1931.006">
		<stop  offset="0" style="stop-color:#6DA9EF"/>
		<stop  offset="1" style="stop-color:#6E87EE"/>
	</linearGradient>
	<rect x="1752.47" y="1674.67" class="st13" width="26.35" height="454.59"/>
	<linearGradient id="SVGID_11_" gradientUnits="userSpaceOnUse" x1="1843.7655" y1="926.9018" x2="1843.7655" y2="1931.0098">
		<stop  offset="0" style="stop-color:#6DA9EF"/>
		<stop  offset="1" style="stop-color:#6E87EE"/>
	</linearGradient>
	<rect x="1830.59" y="1519.06" class="st14" width="26.35" height="610.2"/>
	<linearGradient id="SVGID_12_" gradientUnits="userSpaceOnUse" x1="1921.8831" y1="926.9005" x2="1921.8831" y2="1931.0049">
		<stop  offset="0" style="stop-color:#6DA9EF"/>
		<stop  offset="1" style="stop-color:#6E87EE"/>
	</linearGradient>
	<rect x="1908.71" y="1554.2" class="st15" width="26.35" height="575.06"/>
	<linearGradient id="SVGID_13_" gradientUnits="userSpaceOnUse" x1="2078.1184" y1="926.9018" x2="2078.1184" y2="1931.006">
		<stop  offset="0" style="stop-color:#6DA9EF"/>
		<stop  offset="1" style="stop-color:#6E87EE"/>
	</linearGradient>
	<rect x="2064.94" y="1758.12" class="st16" width="26.35" height="371.14"/>
	<linearGradient id="SVGID_14_" gradientUnits="userSpaceOnUse" x1="2156.2361" y1="926.9025" x2="2156.2361" y2="1931.0065">
		<stop  offset="0" style="stop-color:#6DA9EF"/>
		<stop  offset="1" style="stop-color:#6E87EE"/>
	</linearGradient>
	<rect x="2143.06" y="1788.21" class="st17" width="26.35" height="341.05"/>
	<linearGradient id="SVGID_15_" gradientUnits="userSpaceOnUse" x1="2234.3538" y1="926.9039" x2="2234.3538" y2="1931.0071">
		<stop  offset="0" style="stop-color:#6DA9EF"/>
		<stop  offset="1" style="stop-color:#6E87EE"/>
	</linearGradient>
	<rect x="2221.18" y="1750.9" class="st18" width="26.35" height="378.35"/>
	<linearGradient id="SVGID_16_" gradientUnits="userSpaceOnUse" x1="2312.4714" y1="926.9021" x2="2312.4714" y2="1931.0087">
		<stop  offset="0" style="stop-color:#6DA9EF"/>
		<stop  offset="1" style="stop-color:#6E87EE"/>
	</linearGradient>
	<rect x="2299.29" y="1523.14" class="st19" width="26.35" height="606.12"/>
	<linearGradient id="SVGID_17_" gradientUnits="userSpaceOnUse" x1="2390.5891" y1="926.9023" x2="2390.5891" y2="1931.0068">
		<stop  offset="0" style="stop-color:#6DA9EF"/>
		<stop  offset="1" style="stop-color:#6E87EE"/>
	</linearGradient>
	<rect x="2377.41" y="1384.79" class="st20" width="26.35" height="744.47"/>
	<linearGradient id="SVGID_18_" gradientUnits="userSpaceOnUse" x1="2468.7065" y1="926.9018" x2="2468.7065" y2="1931.0029">
		<stop  offset="0" style="stop-color:#6DA9EF"/>
		<stop  offset="1" style="stop-color:#6E87EE"/>
	</linearGradient>
	<rect x="2455.53" y="1251.14" class="st21" width="26.35" height="878.12"/>
	<linearGradient id="SVGID_19_" gradientUnits="userSpaceOnUse" x1="2546.8242" y1="926.902" x2="2546.8242" y2="1931.0096">
		<stop  offset="0" style="stop-color:#6DA9EF"/>
		<stop  offset="1" style="stop-color:#6E87EE"/>
	</linearGradient>
	<rect x="2533.65" y="1319.84" class="st22" width="26.35" height="809.41"/>
	<linearGradient id="SVGID_20_" gradientUnits="userSpaceOnUse" x1="2703.0596" y1="926.9021" x2="2703.0596" y2="1931.0087">
		<stop  offset="0" style="stop-color:#6DA9EF"/>
		<stop  offset="1" style="stop-color:#6E87EE"/>
	</linearGradient>
	<rect x="2689.88" y="1523.14" class="st23" width="26.35" height="606.12"/>
	<linearGradient id="SVGID_21_" gradientUnits="userSpaceOnUse" x1="1375.0596" y1="926.9014" x2="1375.0596" y2="1931.0056">
		<stop  offset="0" style="stop-color:#6DA9EF"/>
		<stop  offset="1" style="stop-color:#6E87EE"/>
	</linearGradient>
	<rect x="1361.88" y="1873.88" class="st24" width="26.35" height="255.37"/>
	<linearGradient id="SVGID_22_" gradientUnits="userSpaceOnUse" x1="1687.5302" y1="926.903" x2="1687.5302" y2="1931.0087">
		<stop  offset="0" style="stop-color:#6DA9EF"/>
		<stop  offset="1" style="stop-color:#6E87EE"/>
	</linearGradient>
	<rect x="1674.35" y="1788.86" class="st25" width="26.35" height="340.39"/>
	<linearGradient id="SVGID_23_" gradientUnits="userSpaceOnUse" x1="2000.0007" y1="926.9011" x2="2000.0007" y2="1931.0079">
		<stop  offset="0" style="stop-color:#6DA9EF"/>
		<stop  offset="1" style="stop-color:#6E87EE"/>
	</linearGradient>
	<rect x="1986.82" y="1622.59" class="st26" width="26.35" height="506.67"/>
	<linearGradient id="SVGID_24_" gradientUnits="userSpaceOnUse" x1="2624.9419" y1="926.9023" x2="2624.9419" y2="1931.0068">
		<stop  offset="0" style="stop-color:#6DA9EF"/>
		<stop  offset="1" style="stop-color:#6E87EE"/>
	</linearGradient>
	<rect x="2611.77" y="1384.79" class="st27" width="26.35" height="744.47"/>
	<linearGradient id="SVGID_25_" gradientUnits="userSpaceOnUse" x1="2859.2949" y1="1087.2643" x2="2859.2949" y2="1957.4481">
		<stop  offset="0" style="stop-color:#6DA9EF"/>
		<stop  offset="1" style="stop-color:#6E87EE"/>
	</linearGradient>
	<rect x="2846.12" y="1484.08" class="st28" width="26.35" height="645.18"/>
	<linearGradient id="SVGID_26_" gradientUnits="userSpaceOnUse" x1="2937.4126" y1="926.902" x2="2937.4126" y2="1931.0056">
		<stop  offset="0" style="stop-color:#6DA9EF"/>
		<stop  offset="1" style="stop-color:#6E87EE"/>
	</linearGradient>
	<rect x="2924.24" y="1314.2" class="st29" width="26.35" height="815.06"/>
	<linearGradient id="SVGID_27_" gradientUnits="userSpaceOnUse" x1="2781.1772" y1="926.9021" x2="2781.1772" y2="1931.0087">
		<stop  offset="0" style="stop-color:#6DA9EF"/>
		<stop  offset="1" style="stop-color:#6E87EE"/>
	</linearGradient>
	<rect x="2768" y="1523.14" class="st30" width="26.35" height="606.12"/>
</g>
<g>
	<g>
		<polygon class="st31" points="3196.87,2142.59 726.9,2142.59 726.9,815.99 753.57,815.99 753.57,2115.92 3196.87,2115.92 		"/>
	</g>
	<g>
		<polygon class="st31" points="673.76,835.44 740.23,720.32 806.71,835.44 		"/>
	</g>
	<g>
		<polygon class="st31" points="3177.42,2195.73 3292.55,2129.26 3177.42,2062.78 		"/>
	</g>
</g>
<circle class="st0" cx="1218.82" cy="1694.43" r="40"/>
<circle class="st0" cx="1531.29" cy="1963.14" r="40"/>
<ellipse transform="matrix(0.9186 -0.3953 0.3953 0.9186 -413.4074 844.9178)" class="st0" cx="1843.77" cy="1425.73" rx="52.71" ry="52.71"/>
<circle class="st0" cx="2156.24" cy="1694.43" r="40"/>
<circle class="st0" cx="2468.71" cy="1157.02" r="40"/>
<ellipse transform="matrix(0.2298 -0.9732 0.9732 0.2298 754.6067 3804.9404)" class="st0" cx="2781.18" cy="1425.73" rx="52.71" ry="52.71"/>
<g>
	<g>
		<rect x="1058.59" y="1358.43" class="st32" width="8" height="312.47"/>
	</g>
</g>
<g>
	<g>
		<linearGradient id="SVGID_28_" gradientUnits="userSpaceOnUse" x1="1214.8242" y1="1384.7865" x2="1222.8242" y2="1384.7865">
			<stop  offset="0" style="stop-color:#3CB4B5"/>
			<stop  offset="1" style="stop-color:#42C295"/>
		</linearGradient>
		<rect x="1214.82" y="1228.55" class="st33" width="8" height="312.47"/>
	</g>
</g>
<g>
	<g>
		<rect x="1371.06" y="1413.65" class="st32" width="8" height="312.47"/>
	</g>
</g>
<g>
	<g>
		<rect x="1527.29" y="1509.02" class="st34" width="8" height="312.47"/>
	</g>
</g>
<g>
	<g>
		<rect x="1683.53" y="1228.55" class="st32" width="8" height="312.47"/>
	</g>
</g>
<g>
	<g>
		<linearGradient id="SVGID_29_" gradientUnits="userSpaceOnUse" x1="1839.7656" y1="1157.0209" x2="1847.7656" y2="1157.0209">
			<stop  offset="0" style="stop-color:#3CB4B5"/>
			<stop  offset="1" style="stop-color:#42C295"/>
		</linearGradient>
		<rect x="1839.77" y="1000.79" class="st35" width="8" height="312.47"/>
	</g>
</g>
<g>
	<g>
		<rect x="1996" y="1187.14" class="st32" width="8" height="312.47"/>
	</g>
</g>
<g>
	<g>
		<rect x="2152.24" y="1267.25" class="st32" width="8" height="312.47"/>
	</g>
</g>
<g>
	<g>
		<linearGradient id="SVGID_30_" gradientUnits="userSpaceOnUse" x1="2308.4714" y1="1178.9818" x2="2316.4714" y2="1178.9818">
			<stop  offset="0" style="stop-color:#3CB4B5"/>
			<stop  offset="1" style="stop-color:#42C295"/>
		</linearGradient>
		<rect x="2308.47" y="1022.75" class="st36" width="8" height="312.47"/>
	</g>
</g>
<g>
	<g>
		<linearGradient id="SVGID_31_" gradientUnits="userSpaceOnUse" x1="2464.7058" y1="866.5105" x2="2472.7058" y2="866.5105">
			<stop  offset="0" style="stop-color:#3CB4B5"/>
			<stop  offset="1" style="stop-color:#42C295"/>
		</linearGradient>
		<rect x="2464.71" y="710.27" class="st37" width="8" height="312.47"/>
	</g>
</g>
<g>
	<g>
		<rect x="2620.94" y="866.51" class="st32" width="8" height="312.47"/>
	</g>
</g>
<g>
	<g>
		<linearGradient id="SVGID_32_" gradientUnits="userSpaceOnUse" x1="2935.2942" y1="903.5314" x2="2943.2942" y2="903.5314">
			<stop  offset="0" style="stop-color:#3CB4B5"/>
			<stop  offset="1" style="stop-color:#42C295"/>
		</linearGradient>
		<rect x="2935.29" y="747.3" class="st38" width="8" height="312.47"/>
	</g>
</g>
<g>
	<g>
		<rect x="2777.18" y="970.04" class="st32" width="8" height="312.47"/>
	</g>
</g>
<rect x="1040" y="1405.49" class="st32" width="45.18" height="145.57"/>
<linearGradient id="SVGID_33_" gradientUnits="userSpaceOnUse" x1="1218.8243" y1="1225.255" x2="1218.8243" y2="1631.1482">
	<stop  offset="0" style="stop-color:#3CB4B5"/>
	<stop  offset="1" style="stop-color:#42C295"/>
</linearGradient>
<rect x="1196.24" y="1256.79" class="st39" width="45.18" height="241.73"/>
<rect x="1356.24" y="1446.28" class="st32" width="45.18" height="104.78"/>
<linearGradient id="SVGID_34_" gradientUnits="userSpaceOnUse" x1="1843.7654" y1="1225.2546" x2="1843.7654" y2="1631.1471">
	<stop  offset="0" style="stop-color:#3CB4B5"/>
	<stop  offset="1" style="stop-color:#42C295"/>
</linearGradient>
<rect x="1821.18" y="1031.22" class="st40" width="45.18" height="104.78"/>
<linearGradient id="SVGID_35_" gradientUnits="userSpaceOnUse" x1="2312.4714" y1="1225.2549" x2="2312.4714" y2="1631.1473">
	<stop  offset="0" style="stop-color:#3CB4B5"/>
	<stop  offset="1" style="stop-color:#42C295"/>
</linearGradient>
<rect x="2289.88" y="1126.59" class="st41" width="45.18" height="104.78"/>
<linearGradient id="SVGID_36_" gradientUnits="userSpaceOnUse" x1="2937.4126" y1="1225.2544" x2="2937.4126" y2="1631.1469">
	<stop  offset="0" style="stop-color:#3CB4B5"/>
	<stop  offset="1" style="stop-color:#42C295"/>
</linearGradient>
<rect x="2914.82" y="851.14" class="st42" width="45.18" height="104.78"/>
<rect x="2758.59" y="1005.18" class="st32" width="45.18" height="233.73"/>
<rect x="1977.41" y="1219.45" class="st32" width="45.18" height="221.8"/>
<linearGradient id="SVGID_37_" gradientUnits="userSpaceOnUse" x1="2468.7065" y1="1225.2548" x2="2468.7065" y2="1631.147">
	<stop  offset="0" style="stop-color:#3CB4B5"/>
	<stop  offset="1" style="stop-color:#42C295"/>
</linearGradient>
<rect x="2446.12" y="755.61" class="st43" width="45.18" height="221.8"/>
<rect x="1664.94" y="1343.37" class="st32" width="45.18" height="146.2"/>
<rect x="2133.65" y="1362.83" class="st32" width="45.18" height="146.2"/>
<rect x="2602.35" y="1010.83" class="st32" width="45.18" height="146.2"/>
<rect x="1508.71" y="1536.63" class="st44" width="45.18" height="210.51"/>
<g>
	<path class="st45" d="M1581.61,1732.86h169.73l22.27,283.92l-10.35,211.77c0,10.45-52.71,10.45-52.71,0l0.94-208l-37.33-157.18
		l-18.73,185.98l-33.97,179.19c-17,10.1-34.48,10.8-52.56,0L1588.2,2024L1581.61,1732.86z"/>
	<g class="st46">
		<path d="M1658.41,1941.49l-16.16,107.87l-33.97,179.19c-6.5,3.86-13.07,6.34-19.72,7.33c11.18,1.67,22.14-0.94,32.9-7.33
			l33.97-179.19l18.73-185.99L1658.41,1941.49z"/>
		<path d="M1751.34,1732.86h-13.18l22.27,283.92l-10.35,211.77c0,4.34-9.12,6.88-19.76,7.61c14.96,1.03,32.94-1.5,32.94-7.61
			l10.35-211.77L1751.34,1732.86z"/>
	</g>
	<path class="st32" d="M1805.14,2276.86h-73.26c-11.78,0-21.33-9.55-21.33-21.33v-26.98c0,10.46,52.71,10.46,52.71,0l46.39,11.54
		c8.32,2.07,14.16,9.54,14.16,18.11l0,0C1823.81,2268.51,1815.45,2276.86,1805.14,2276.86z"/>
	<path class="st32" d="M1663.48,2276.86h-73.26c-11.78,0-21.33-9.55-21.33-21.33v-26.98c17.01,9.47,34.59,8.08,52.71,0l46.39,11.54
		c8.32,2.07,14.16,9.54,14.16,18.11l0,0C1682.15,2268.51,1673.79,2276.86,1663.48,2276.86z"/>
	<path class="st46" d="M1823.8,2258.19c0,5.15-2.08,9.84-5.47,13.2c-3.36,3.39-8.05,5.47-13.2,5.47h-73.25
		c-7.15,0-13.44-3.49-17.31-8.88c3.09,1.76,6.67,2.77,10.48,2.77h73.25c5.15,0,9.84-2.08,13.2-5.47c3.39-3.39,5.47-8.05,5.47-13.2
		c0-3.84-1.17-7.44-3.2-10.43C1819.83,2244.83,1823.8,2251.13,1823.8,2258.19z"/>
	<path class="st46" d="M1682.15,2258.19c0,5.15-2.11,9.84-5.47,13.2c-3.39,3.39-8.05,5.47-13.2,5.47h-73.25
		c-7.15,0-13.44-3.49-17.31-8.88c3.09,1.76,6.67,2.77,10.48,2.77h73.25c5.15,0,9.84-2.08,13.2-5.47c3.39-3.39,5.47-8.05,5.47-13.2
		c0-3.84-1.17-7.44-3.2-10.43C1678.18,2244.83,1682.15,2251.13,1682.15,2258.19z"/>
	<g>
		<g>
			<path class="st47" d="M1570.54,1825.1h-13.33v-58.67c0-3.68-2.99-6.67-6.67-6.67h-77.33c-3.68,0-6.67,2.99-6.67,6.67v58.67
				h-13.33v-58.67c0-11.03,8.97-20,20-20h77.33c11.03,0,20,8.97,20,20V1825.1z"/>
		</g>
	</g>
	<path class="st48" d="M1527.32,1756.7c-0.78,4.56-2.06,9.46-5.73,12.28c-4.03,3.1-9.65,2.72-14.7,2.2
		c-6.79-0.7-14.38-1.83-18.51-7.27c-4.2-5.54-3.07-13.49-0.36-19.9c2.71-6.4,6.81-12.31,8.22-19.11
		c2.12-10.24-2.16-20.66-6.98-29.94s-10.4-18.64-11.12-29.07c0.08,1.2,11.53,1.19,12.74,1.14c4.4-0.21,8.49-1.96,12.76-2.32
		c6.51-0.55,10.31,10.84,12.74,15.86c7.21,14.91,11.46,31.24,12.47,47.76C1529.42,1737.8,1528.93,1747.35,1527.32,1756.7z"/>
	<linearGradient id="SVGID_38_" gradientUnits="userSpaceOnUse" x1="1511.8729" y1="1745.7256" x2="1511.8729" y2="2073.5598">
		<stop  offset="0" style="stop-color:#57411D"/>
		<stop  offset="1" style="stop-color:#47302B"/>
	</linearGradient>
	<path class="st49" d="M1635.79,2010.04h-247.84c-14.73,0-26.67-11.94-26.67-26.67v-152.78c0-14.73,11.94-26.67,26.67-26.67h247.84
		c14.73,0,26.67,11.94,26.67,26.67v152.78C1662.46,1998.1,1650.52,2010.04,1635.79,2010.04z"/>
	<g>
		<path class="st0" d="M1506.88,1960.34v-14.46c-8.39-0.15-16.92-2.75-21.99-6.36l3.47-9.69c5.06,3.33,12.59,6.22,20.69,6.22
			c10.27,0,17.21-5.93,17.21-14.18c0-7.96-5.64-12.88-16.35-17.21c-14.75-5.79-23.87-12.59-23.87-25.17
			c0-12.01,8.53-21.12,21.7-23.29v-14.47h9.11v14.03c8.53,0.29,14.46,2.6,18.8,5.06l-3.62,9.55c-3.04-1.73-8.97-5.06-18.23-5.06
			c-11.14,0-15.33,6.65-15.33,12.59c0,7.38,5.35,11.14,17.94,16.49c14.9,6.08,22.42,13.45,22.42,26.33
			c0,11.57-7.96,22.28-22.86,24.59v15.04H1506.88z"/>
	</g>
	<g class="st50">
		<path d="M1635.79,1978.98h-247.84c-14.73,0-26.67-11.94-26.67-26.67v31.06c0,14.73,11.94,26.67,26.67,26.67h247.84
			c14.73,0,26.67-11.94,26.67-26.67v-31.06C1662.46,1967.04,1650.52,1978.98,1635.79,1978.98z"/>
	</g>
	<polygon class="st48" points="1584.15,1290.19 1594.84,1192.36 1651.92,1205.54 1677.05,1288.94 	"/>
	<polygon class="st51" points="1584.15,1290.19 1594.84,1192.36 1651.92,1205.54 1677.05,1288.94 	"/>
	<path class="st48" d="M1556.8,1151.74c6.37,15.04,14.48,29.58,25.94,41.21c11.46,11.63,26.56,20.2,42.83,21.61
		c16.27,1.41,33.56-5.11,43.06-18.39c5.78-8.07,8.42-17.96,10.09-27.74c5.66-33.15,1.21-67.95-12.62-98.6
		c-5.49-12.17-12.72-24.03-23.58-31.81c-15.26-10.93-35.45-12.24-54.09-9.99c-11.23,1.35-22.62,3.98-31.97,10.35
		c-16.94,11.55-18.61,28.47-16.71,46.98C1542.11,1108.17,1547.86,1130.63,1556.8,1151.74z"/>
	<path class="st32" d="M1578.23,1055.05c9.25-8,22.35-9.88,34.56-9.17c12.2,0.71,24.22,3.67,36.44,3.95
		c31.34,0.72,62.33-17.87,76.45-45.86c4.43-8.78,7.3-19,4.51-28.43c-3.36-11.34-14.54-19.14-26.19-21.14
		c-11.65-2-23.64,0.95-34.58,5.41c-10.95,4.46-21.23,10.43-32.18,14.89c-28.66,11.68-61.45,12.9-87.85,29.04
		c-18.37,11.23-32.37,29.41-38.54,50.04c-6.16,20.63-4.43,43.51,4.78,62.98c8.07,17.06,21.34,31.05,31.43,47
		c5.65,8.93,10.29,18.5,13.83,28.46c3.43,9.65,16.37,11.07,21.69,2.33c7.98-13.11,12.59-28.29,12.97-43.64
		c0.48-19.48-5.87-38.74-17.29-54.46c-4.1-5.64-7.85-9.76-8.77-16.89C1568.31,1070.46,1571.13,1061.19,1578.23,1055.05z"/>
	<path class="st0" d="M1581.61,1732.86l-55.36-401.41c-3.93-26.23,8.37-49.73,34.17-55.86l0,0c37.78-8.97,76.79-10.68,114.96-5.17
		c14.69,2.12,32.25,33.26,32.25,33.26c14.39,4.27,72.9,265.77,43.71,429.18L1581.61,1732.86z"/>
	<path class="st48" d="M1980.74,1135.58c12.99-21.28,25.99-42.55,38.98-63.83c4.27-6.99,8.69-14.51,8.41-22.7
		c-0.38-11.16-9.57-20.28-19.7-25c-6.88-3.2-14.68-4.95-22.12-3.44c-7.44,1.51-14.37,6.7-16.61,13.95
		c-1.81,5.86-0.48,12.15,0.15,18.25c2.53,24.47-7.29,49.9-25.61,66.31C1955.89,1125,1968.14,1132.18,1980.74,1135.58z"/>
	<g class="st46">
		<path class="st52" d="M2008.43,1024.05c-5.23-2.43-11-4.02-16.73-3.98c1.31,0.48,2.61,0.99,3.86,1.58
			c10.13,4.71,19.32,13.83,19.7,25c0.28,8.19-4.14,15.71-8.41,22.7c-12.63,20.68-25.26,41.36-37.89,62.04
			c3.88,1.66,7.81,3.13,11.77,4.19c12.99-21.28,25.99-42.55,38.98-63.83c4.27-6.99,8.69-14.51,8.41-22.7
			C2027.75,1037.88,2018.56,1028.76,2008.43,1024.05z"/>
	</g>
	<path class="st45" d="M1740.67,1286.43l73.41,34.82l131.75-211.57c11.55,10.73,25.56,17.15,43.11,17.41l-117.46,233.22
		c-10.98,21.14-34.51,32.61-57.93,28.23l-72.88-13.64V1286.43z"/>
	<path class="st53" d="M1675.38,1270.43c0,0,69.99,141.81,22.93,462.44l62.54,5.49c5.13,0.45,9.76-3.06,10.71-8.13
		c10.1-54.39,58.45-342.54-30.89-443.79C1717.63,1278.89,1695.74,1273.34,1675.38,1270.43z"/>
	<path class="st45" d="M1586.32,1269.44c0,1.18-33.22-0.47-52.52,21.94c-4.68,3.93-8.48,9.06-10.78,15.12l-79.13,208.28
		c-8.4,22.11-9.26,46.37-2.44,69.02l47.29,130.72c12,5.37,27.95,4.2,45.72,0l-34.51-166.9l34.59-83.61l25.65,274.78
		c0.54,5.75,6.12,9.63,11.7,8.13l52.07-14.06C1623.96,1732.86,1663.49,1355.04,1586.32,1269.44z"/>
	<g class="st50">
		<path d="M1586.32,1269.44c0,1.18-33.22-0.47-52.52,21.94c-4.68,3.93-8.48,9.06-10.78,15.12l-79.13,208.28
			c-8.4,22.11-9.26,46.37-2.44,69.02l47.29,130.72c12,5.37,27.95,4.2,45.72,0l-34.51-166.9l34.59-83.61l25.65,274.78
			c0.54,5.75,6.12,9.63,11.7,8.13l52.07-14.06C1623.96,1732.86,1663.49,1355.04,1586.32,1269.44z"/>
	</g>
	<path class="st54" d="M1653.82,1299.22c1.54-2.09,3.06-4.22,4.52-6.43c-3.74-9.32-13.53-25.22-13.53-25.22
		c-6.27-0.45-13.32-0.33-20.81-0.2c0,0,0.65,23.84-0.44,31.83c2.81,1.67,5.58,3.48,8.32,5.38c16.49,99.29,19.15,199.3,8.5,297.23
		c10.76,14.09,21.24,28.6,31.43,43.53c12.19-13.34,24.14-27.12,35.82-41.32C1703.6,1499.48,1685.28,1396.97,1653.82,1299.22z"/>
	<g class="st46">
		<g>
			<path d="M1653.82,1299.22c1.54-2.09,3.06-4.22,4.52-6.43c-3.74-9.32-13.53-25.22-13.53-25.22c-1.84-0.13-3.76-0.2-5.72-0.25
				c3.2,5.48,7.95,13.96,10.31,19.83c-1.46,2.21-2.97,4.34-4.52,6.43c31.46,97.76,49.77,200.27,53.81,304.79
				c-10.77,13.09-21.77,25.8-32.97,38.17c2.04,2.92,4.08,5.85,6.09,8.81c12.19-13.34,24.14-27.12,35.82-41.32
				C1703.6,1499.48,1685.28,1396.97,1653.82,1299.22z"/>
		</g>
	</g>
	<g>
		<linearGradient id="SVGID_39_" gradientUnits="userSpaceOnUse" x1="1927.3839" y1="950.1964" x2="2188.1589" y2="950.1964">
			<stop  offset="0" style="stop-color:#FBC048"/>
			<stop  offset="1" style="stop-color:#ED8689"/>
		</linearGradient>
		<circle class="st55" cx="2057.77" cy="950.2" r="130.35"/>
		<linearGradient id="SVGID_40_" gradientUnits="userSpaceOnUse" x1="1941.5052" y1="950.1964" x2="2174.0374" y2="950.1964">
			<stop  offset="0" style="stop-color:#ED8689"/>
			<stop  offset="1" style="stop-color:#FBC048"/>
		</linearGradient>
		<circle class="st56" cx="2057.77" cy="950.2" r="116.24"/>
		<g>
			<path class="st0" d="M2074.81,1033.96l-6.24-20.46c-11.93,3.41-25.12,3.41-33.84,0.48l0.73-15.21c8.6,2.53,20.48,3.37,31.94-0.12
				c14.53-4.43,21.79-15.82,18.23-27.48c-3.43-11.26-13.54-15.78-30.55-17.3c-23.36-1.82-39.19-7.5-44.62-25.3
				c-5.18-16.98,2.96-33.55,20.65-42.3l-6.24-20.46l12.89-3.93l6.05,19.85c12.19-3.27,21.58-2.56,28.78-0.95l-1,15.07
				c-5.04-1.14-14.86-3.29-27.96,0.7c-15.76,4.8-18.82,16.02-16.26,24.41c3.18,10.43,12.38,13.45,32.48,15.59
				c23.69,2.16,37.52,9.35,43.07,27.56c4.99,16.37-1.64,34.94-21.72,44.64l6.49,21.28L2074.81,1033.96z"/>
		</g>
	</g>
</g>
</svg>
